<?xml version="1.0" encoding="utf-8"?>
<!-- Generator: Adobe Illustrator 25.0.0, SVG Export Plug-In . SVG Version: 6.00 Build 0)  -->
<svg version="1.1" id="Layer_1" xmlns="http://www.w3.org/2000/svg" xmlns:xlink="http://www.w3.org/1999/xlink" x="0px" y="0px"
	 viewBox="0 0 3000 3000" style="enable-background:new 0 0 3000 3000;" xml:space="preserve">
<style type="text/css">
	.st0{fill:#EE3527;}
	.st1{fill:#EE3326;}
	.st2{fill:#EE3026;}
	.st3{fill:#EC3026;}
	.st4{fill:#EE3528;}
	.st5{fill:#EF3929;}
	.st6{fill:#EABBA9;}
	.st7{fill:#FCD3C1;}
	.st8{fill:#FDD9C9;}
	.st9{fill:#FCCDBA;}
	.st10{fill:#F4D3BF;}
	.st11{fill:#FEE5D9;}
	.st12{fill:#FEF0E8;}
	.st13{fill:#FDE1D4;}
	.st14{fill:#F7DFD0;}
	.st15{fill:#FFFAF7;}
	.st16{fill:#F7997A;}
	.st17{fill:#FFF8F4;}
	.st18{fill:#FDD6C5;}
	.st19{fill:#FEF3ED;}
	.st20{fill:#FEF9F5;}
</style>
<path class="st0" d="M211.53,1440.41c0.34,1.18,0.68,2.35,1.02,3.53c0.27,2.08,0.4,4.19,0.83,6.23
	c5.39,25.38,15.03,49.31,25.43,72.92c3.92,8.89,9.17,17.2,13.82,25.77c1.04,2.01,2.07,4.01,3.11,6.02c0.79,1.5,1.58,3.01,2.37,4.51
	c0,0,0.34,0.08,0.34,0.08c0.37,0.92,0.74,1.84,1.11,2.76c1.65,2.74,3.31,5.49,4.96,8.23c1.35,1.59,2.7,3.18,4.05,4.77
	c2.98,4.53,5.96,9.06,8.93,13.59c0.71,1.01,1.42,2.02,2.12,3.03c1.09,1.53,2.17,3.06,3.26,4.59c-0.06,0.51,0.17,0.79,0.67,0.85
	c1.21,1.19,2.43,2.38,3.64,3.57c0.58,0.67,1.16,1.34,1.75,2.02c3.53,3.98,7.07,7.96,10.6,11.93c0.86,0.9,1.72,1.81,2.58,2.71
	c4.25,3.69,8.5,7.38,12.75,11.07c1,0.77,1.99,1.55,2.99,2.32c1.47,1.04,2.93,2.08,4.4,3.13c0.1,0.52,0.42,0.75,0.94,0.69
	c2.75,1.65,5.51,3.3,8.26,4.96c0.08,0.5,0.37,0.72,0.87,0.65c4,2.3,8,4.59,12.01,6.89c1.59,0.77,3.18,1.53,4.77,2.3
	c1.54,0.96,3.08,1.92,4.62,2.89l0.23,0.1c0.52,0.36,1.04,0.71,1.57,1.07c0.85,0.58,1.69,1.15,2.54,1.73c1.58,1,3.15,2,4.73,3
	c0.2,0.44,0.53,0.62,1.01,0.54c1.38,0.69,2.76,1.39,4.14,2.08c0.62,0.41,1.25,0.82,1.87,1.23c4.48,2.26,8.96,4.52,13.44,6.78
	c1.42,0.45,2.84,0.9,4.26,1.36c1.08,0.48,2.17,0.96,3.25,1.44c1.14,0.38,2.28,0.76,3.43,1.14c0.69,0.39,1.37,0.78,2.06,1.17
	c1.18,0.26,2.35,0.51,3.53,0.77c0.63,0.36,1.26,0.72,1.89,1.07c1.2,0.27,2.4,0.55,3.6,0.82c4.35,1.67,8.7,3.34,13.05,5.01
	c1.68,0.25,3.37,0.49,5.05,0.74c0.7,0.12,1.41,0.24,2.11,0.36c1.91,0.27,3.82,0.53,5.73,0.8c1.25,0.53,2.49,1.06,3.74,1.59
	c3.04,0.17,6.08,0.34,9.12,0.51c1.26,0.46,2.51,0.93,3.77,1.39c7.34,0.24,14.68,0.48,22.02,0.72c3.09,0.01,6.18,0.02,9.27,0.03
	c5.5-0.19,10.99-0.38,16.49-0.57c1.26-0.48,2.52-0.97,3.78-1.45c2.42-0.2,4.83-0.4,7.25-0.6c0.68-0.34,1.37-0.68,2.05-1.02
	c1.85-0.46,3.7-0.91,5.55-1.37c0.68-0.16,1.37-0.31,2.05-0.47c1.14-0.59,2.29-1.17,3.43-1.76c1.53-0.54,3.07-1.08,4.6-1.62
	c0.9-0.27,1.81-0.54,2.71-0.81c2.4-1.16,4.81-2.32,7.21-3.48c1.28-0.65,2.55-1.29,3.83-1.94c1.64-0.81,3.28-1.61,4.92-2.42
	c1.45-1.08,2.9-2.15,4.36-3.23c0.69-0.47,1.39-0.94,2.08-1.41c2.41-2.52,4.82-5.05,7.23-7.57c0.4-0.56,0.81-1.11,1.21-1.67
	c2.09-3,4.19-6,6.28-8.99c0.42-0.71,0.84-1.42,1.25-2.13c0.84-2.89,1.68-5.78,2.53-8.68c0.57-1.45,1.14-2.89,1.71-4.34
	c0.06-5.53,0.11-11.06,0.17-16.6c0.08-0.22,0.25-0.46,0.21-0.65c-0.09-0.41-0.3-0.8-0.46-1.19c-0.56-1.4-1.11-2.81-1.67-4.21
	c-0.19-1.07-0.38-2.15-0.57-3.22c-0.44-0.69-0.88-1.38-1.32-2.07l0.1,0.12c-0.11-0.89,0.11-2.1-0.39-2.62
	c-7.93-8.26-15.94-16.44-23.97-24.59c-0.34-0.34-1.14-0.22-1.73-0.32c-6.18-3.31-12.03-7.59-18.59-9.76
	c-26.46-8.77-53.08-17.07-79.76-25.15c-11.99-3.63-24.27-6.35-36.41-9.48c-18.39-6.94-36.78-13.88-55.17-20.82
	c-14.26-9.02-28.52-18.03-42.77-27.05c-1.81-1.25-3.62-2.51-5.43-3.76c-1.79-1.26-3.57-2.52-5.36-3.79
	c-0.69-0.56-1.37-1.12-2.06-1.69c-4.91-4.34-9.82-8.68-14.72-13.03c-8.09-9.19-16.18-18.38-24.27-27.57
	c-2.34-4.34-4.69-8.69-7.03-13.03c-0.99-1.58-1.97-3.16-2.96-4.74c-0.5-1.43-1.01-2.85-1.51-4.28c-0.45-1.27-0.9-2.54-1.35-3.82
	c-1.52-4.86-3.04-9.72-4.56-14.57c-0.87-1.34-1.73-2.67-2.6-4.01c0.14-0.53,0.16-1.07,0.06-1.61c-0.13-1.88-0.25-3.76-0.38-5.63
	c-0.24-1.18-0.47-2.36-0.71-3.54c-0.35-1.9-0.7-3.8-1.05-5.7c-0.25-1.79-0.51-3.59-0.76-5.38c-0.32-1.91-0.65-3.81-0.97-5.72
	c-0.32-3.01-0.64-6.03-0.96-9.04c0.04-5.67,0.07-11.34,0.11-17.01c0.29-3.63,0.58-7.26,0.87-10.9c0.27-1.91,0.55-3.82,0.82-5.74
	c0.26-1.8,0.52-3.59,0.78-5.39c0.33-1.9,0.65-3.8,0.98-5.7c0.32-1.79,0.63-3.57,0.95-5.36c0.22-1.29,0.45-2.59,0.67-3.88
	c0.38-1.79,0.76-3.57,1.13-5.36c0.27-1.29,0.53-2.58,0.8-3.87c0.36-1.17,0.71-2.34,1.07-3.51c0.44-1.27,0.87-2.55,1.31-3.82
	c5.17-10.29,9.54-21.08,15.72-30.71c6.06-9.44,14.01-17.67,21.06-26.48c2.3-2.87,4.38-5.9,6.57-8.86c1.32-1.24,2.64-2.47,3.96-3.71
	c10.24-10.56,20.55-21.1,33.19-28.82c7.49-4.58,15.49-8.32,23.27-12.44c0.27-0.14,0.59-0.2,0.85-0.35
	c16.67-10.15,35.64-15.15,52.98-23.79c3.56-1.31,7.12-2.62,10.68-3.93c10.58-3.17,21.16-6.34,31.73-9.51
	c1.27-0.26,2.55-0.51,3.82-0.77c1.81-0.3,3.61-0.61,5.42-0.91c1.28-0.29,2.55-0.58,3.83-0.88c3.64-0.5,7.28-1.01,10.92-1.51
	c1.28-0.12,2.56-0.25,3.84-0.37c6.11-0.53,12.21-1.06,18.32-1.58c1.89-0.09,3.79-0.17,5.68-0.26c12.82-0.16,25.67-0.92,38.45-0.3
	c13.06,0.64,26.05,2.64,39.08,4.04c1.27,0.3,2.55,0.61,3.82,0.91c2.42,0.31,4.84,0.61,7.26,0.92c1.28,0.27,2.55,0.55,3.83,0.82
	c2.42,0.34,4.83,0.68,7.25,1.02c1.28,0.25,2.55,0.5,3.83,0.75c3.03,0.36,6.06,0.73,9.09,1.09c1.28,0.16,2.56,0.32,3.84,0.48
	c3.03,0.43,6.07,0.86,9.1,1.29c1.27,0.11,2.55,0.22,3.82,0.33c4.87,0.55,9.74,1.11,14.61,1.66c1.26,0.04,2.51,0.07,3.77,0.11
	c18.31,2.21,35.25-2.72,51.39-10.6c9.58-4.68,18.89-10.03,27.83-15.83c4.75-3.09,8.01-8.44,12.73-11.61
	c8.83-5.95,14.33-14.75,21.07-22.5c0.59-0.68,0.96-1.54,1.43-2.32c1.26-1.24,2.51-2.49,3.77-3.73c0.75-0.9,1.49-1.79,2.24-2.69
	c1.7-2.18,3.4-4.36,5.11-6.55c0,0-0.02,0.03-0.02,0.03c12.61-13.41,20.9-29.59,29.37-45.99c0.41,5.68-0.61,10.9-1.15,16.18
	c-3.23,31.8-6.27,63.63-9.51,95.43c-2.46,24.16-5.06,48.3-7.68,72.44c-2.32,21.39-4.77,42.76-7.09,64.14
	c-0.16,1.48,0.22,3.02,0.35,4.53c-0.12,1.23-0.24,2.47-0.37,3.7c-1.81,16.6-3.62,33.2-5.43,49.8c-0.1,1.22-0.2,2.45-0.3,3.67
	c-1.83,16.73-3.66,33.47-5.62,51.31c-3.08-1.85-5.04-3.03-7-4.21l-0.03-0.65l-0.59-0.29c-1.04-1.49-2.09-2.98-3.13-4.48
	c-2.01-2.81-4.01-5.62-6.02-8.42c-1.08-1.49-2.15-2.97-3.23-4.46c-1.64-2.18-3.33-4.33-4.92-6.55
	c-17.17-23.82-37.57-44.52-60.28-63.09c-24.72-20.21-52.35-34.32-83.57-41.15c-22.54-4.93-45.24-5.57-67.74-0.26
	c-12.77,3.01-24.5,8.4-29.6,22.14c-0.62,0.98-1.24,1.96-1.86,2.94c-0.23,0.18-0.65,0.36-0.64,0.53c0.02,0.53,0.2,1.05,0.33,1.58
	c-0.7,1.2-1.4,2.41-2.1,3.61c-0.37,1.69-0.74,3.38-1.11,5.07c-0.31,0.63-0.62,1.26-0.93,1.88c0.14,6.92-1.39,14.41,0.76,20.63
	c5.65,16.43,16.45,29.37,31.99,37.67c13.83,7.4,28.3,13.39,43.56,17.19c32.45,8.08,65,15.79,97.39,24.08
	c25.28,6.47,50.3,13.87,73.67,25.82c10.35,5.29,20.46,11.04,30.68,16.58c2.32,1.6,4.63,3.2,6.95,4.8c4.04,3.17,8.33,6.07,12.07,9.57
	c16.93,15.87,32.25,33.05,42.39,54.25c0.39,0.68,0.78,1.37,1.17,2.05c0.32,1.17,0.63,2.34,0.95,3.51c0.33,0.62,0.65,1.23,0.98,1.85
	c0.34,1.17,0.68,2.34,1.02,3.52c0.35,0.65,0.7,1.31,1.05,1.96c0.3,1.2,0.6,2.39,0.91,3.59c0.85,4.59,0.44,9.63,4.66,13.02
	c0.26,2.43,0.53,4.86,0.79,7.3c1.18,15.11,3.24,30.22,3.28,45.33c0.04,13.28-2.17,26.57-3.38,39.86c-0.27,1.8-0.53,3.6-0.8,5.4
	c-4.37,3.37-3.44,8.56-4.51,13.07c-0.34,1.18-0.67,2.36-1.01,3.54c-0.38,0.66-0.76,1.32-1.15,1.99c-0.32,1.12-0.64,2.23-0.96,3.35
	c-0.37,0.68-0.74,1.37-1.1,2.05c-0.23,1.19-0.47,2.39-0.7,3.58c-1.47,3.06-2.95,6.11-4.42,9.17c-1.77,3.4-3.54,6.79-5.31,10.19
	c-1.07,1.56-2.14,3.12-3.22,4.69c0,0,0.02-0.02,0.02-0.02c-1.13,1.89-2.26,3.78-3.4,5.67c-0.53,0.14-0.74,0.48-0.63,1.02
	c-0.5,0.86-1,1.72-1.51,2.58c0,0,0.01-0.01,0.01-0.01c-0.47,0.64-0.95,1.28-1.42,1.93c-0.56,0.12-0.82,0.46-0.78,1.03
	c-1.55,2.15-3.09,4.29-4.64,6.43c-0.86,1.05-1.71,2.1-2.57,3.15c-1.35,1.18-2.7,2.37-4.04,3.55c-0.95,1.45-1.89,2.89-2.84,4.33
	c-3.33,3.42-6.66,6.84-10,10.25c-2.91,2.72-5.83,5.43-8.74,8.15c-2.52,2.36-5.04,4.72-7.57,7.08c-2.44,1.91-4.89,3.81-7.33,5.72
	c0,0,0.03-0.02,0.03-0.02c-1.81,1.28-3.62,2.55-5.42,3.83c-0.65,0.57-1.3,1.13-1.94,1.7c-1.55,1.03-3.1,2.05-4.65,3.08
	c-1.58,1.32-3.15,2.64-4.73,3.96c-1.24,0.73-2.47,1.46-3.71,2.18c-1.17,0.62-2.34,1.25-3.5,1.87c-1.58,0.99-3.16,1.97-4.73,2.96
	c-0.42-0.09-0.7,0.06-0.85,0.46c-0.91,0.49-1.83,0.98-2.74,1.47c-0.87,0.39-1.74,0.78-2.61,1.16c-0.59,0.51-1.18,1.02-1.77,1.53
	c0,0-0.09,0.04-0.09,0.04c-3.21,1.73-6.43,3.46-9.64,5.2c-0.59,0.04-1.04,0.31-1.35,0.81c-1.56,0.85-3.11,1.69-4.67,2.54
	c-0.46-0.12-0.81,0.02-1.06,0.43c-9.93,4.29-19.85,8.58-29.78,12.87c-0.57-0.07-1.06,0.09-1.48,0.48c-2.5,1.13-5.01,2.26-7.51,3.38
	c-1.31,0.43-2.62,0.86-3.93,1.28c-3.27,1.23-6.53,2.47-9.8,3.7c-0.93,0.24-1.86,0.49-2.79,0.73c-1.25,0.59-2.49,1.19-3.74,1.78
	c-1.3,0.45-2.61,0.89-3.91,1.34c-0.56,0.23-1.13,0.46-1.69,0.69c-1.86,0.43-3.71,0.86-5.57,1.3c-4.28,1.34-8.56,2.68-12.84,4.02
	c-3.63,0.87-7.25,1.75-10.88,2.62c-1.29,0.39-2.58,0.79-3.87,1.18c-6.11,1.44-12.21,2.87-18.32,4.31c-1.29,0.37-2.57,0.74-3.86,1.11
	c-1.18,0.22-2.36,0.43-3.54,0.65c-1.89,0.41-3.79,0.83-5.68,1.24c-1.18,0.24-2.36,0.47-3.54,0.71c-1.29,0.34-2.58,0.67-3.88,1.01
	c-1.78,0.33-3.56,0.67-5.33,1c-1.3,0.26-2.61,0.52-3.91,0.79c-7.92,1.11-15.84,2.21-23.75,3.32c-3.15,0.16-6.3,0.33-9.45,0.49
	c-11.01,0.39-22.01,0.77-33.02,1.16c-1.37,0-2.74,0-4.12,0c-7.93-0.39-15.86-0.77-23.79-1.16c-1.92-0.18-3.84-0.36-5.76-0.54
	c-4.23-0.45-8.46-0.91-12.7-1.36c-1.3-0.12-2.61-0.24-3.91-0.36c-5.47-0.49-10.93-0.98-16.4-1.46c-3.13-0.37-6.26-0.73-9.4-1.1
	c-1.79-0.23-3.59-0.46-5.38-0.69c-1.9-0.39-3.79-0.78-5.69-1.17c-1.19-0.16-2.38-0.32-3.57-0.48c-3.75-0.91-7.5-1.82-11.25-2.74
	c-1.17-0.32-2.34-0.64-3.52-0.96c-1.89-0.43-3.78-0.86-5.67-1.29c-3.03-0.81-6.06-1.62-9.09-2.43c-1.28-0.37-2.57-0.74-3.85-1.1
	c-3.64-0.87-7.28-1.74-10.91-2.62c-1.28-0.39-2.56-0.78-3.84-1.18c-1.17-0.27-2.35-0.53-3.52-0.8c-1.29-0.34-2.58-0.68-3.87-1.01
	c-1.18-0.21-2.37-0.41-3.55-0.62c-1.29-0.28-2.58-0.56-3.87-0.84c-1.78-0.4-3.55-0.79-5.33-1.19c-1.3-0.28-2.59-0.57-3.89-0.85
	c-6.7-0.98-13.4-1.95-20.1-2.93c-6.15,0.01-12.3,0.02-18.46,0.03c-14.84,1.95-26.9,9.23-36.46,20.32
	c-5.06,5.87-10.8,11.76-11.51,20.28c-0.42,1.88-0.85,3.77-1.27,5.65c-0.17,1.2-0.34,2.4-0.51,3.59c-3.29,17.04-0.1,33.24,5.72,49.29
	c7.3,20.14,14.34,40.38,20.88,60.78c3.6,11.22-0.56,20.24-10.72,26.63c-1.01,0.64-1.99,1.32-2.99,1.99c-1.9,0.03-3.8,0.05-5.7,0.08
	c-4.89-1.98-9.77-3.96-14.66-5.94c-0.64-0.59-1.29-1.17-1.93-1.76c-10.14-12.03-12.01-26.54-11.97-41.42
	c0.02-7.96,1.01-15.94,1.77-23.89c0.75-7.95,2.57-15.89,2.47-23.81c-0.25-19.97-1.19-39.93-2.08-59.89
	c-1.15-25.79-2.5-51.58-3.85-77.36c-0.17-3.3-0.88-6.57-1.33-9.86c-0.11-6.75-0.22-13.5-0.33-20.26c-0.49-4.94-0.97-9.89-1.46-14.83
	c-0.1-1.83-0.2-3.66-0.29-5.49c-0.42-8.85-0.83-17.7-1.26-26.55c-0.97-19.96-1.92-39.92-2.94-59.87
	c-1.71-33.76-3.44-67.52-5.23-101.28c-0.18-3.3-0.91-6.57-1.39-9.86c-0.07-1.22-0.15-2.44-0.22-3.66c0.23-3.63,0.76-7.26,0.64-10.88
	c-0.61-17.67-1.42-35.34-2.07-53.01c-0.09-2.39,0.32-4.8,0.5-7.2c0.5,0.02,1.01,0.03,1.51,0.05
	C206.61,1428.82,209.07,1434.61,211.53,1440.41z M749.8,1131.34c-2.25,0.31-2.6,0.25-2.78,0.4c-0.7,0.59-1.41,1.19-1.99,1.89
	c-15.99,19.15-35.12,32.86-60.19,38.24c-24.33,5.22-48.48,7.6-73.2,3.58c-24.87-4.05-49.75-8.34-74.8-10.98
	c-49.69-5.23-96.79,5.76-141.36,27.02c-17.63,8.41-34.29,19.36-50.12,30.9c-22.35,16.3-43.62,34.13-54.49,60.96
	c-0.23,0.56-0.63,1.06-0.94,1.59c-10.74,18.41-15.51,38.56-16.3,59.59c-0.34,9.12,1.3,18.29,1.82,27.46
	c0.63,11.24,4.23,21.64,9.25,31.48c8.12,15.91,17.6,31.09,29.91,44.09c8.84,9.33,18.42,18.05,28.38,26.16
	c6.11,4.97,13.14,9.64,20.53,12.06c19.25,6.31,38.71,12.31,58.48,16.6c34,7.36,67.55,16.13,100.19,28.12
	c21.71,7.97,42.31,17.64,58.22,35.73c17.61,20.02,31.78,52.76,15.96,86.94c-8.09,17.47-20.69,30.77-35.75,41.33
	c-36.86,25.85-78.32,30.48-121.73,23.08c-10.6-1.81-21.1-4.27-31.63-6.52c-20.02-4.29-38.76-12-56.51-22
	c-14.71-8.3-28.93-17.46-43.49-26.01c-22.9-13.45-41.7-31.24-56.97-52.89c-2.11-3-4.9-5.52-7.38-8.26
	c-0.69,0.36-1.37,0.71-2.06,1.07c-2.22,54.55,6.51,108.47,9.25,163.08c1.99-0.33,2.97-0.27,3.71-0.65
	c11.25-5.81,23.29-7.47,35.79-7.17c28.74,0.68,56.94,5.37,84.86,11.73c31.22,7.11,62.61,12.93,94.47,16.24
	c15.35,1.59,30.65,2.12,46.03,0.31c14.05-1.66,28.13-3.03,42.21-4.43c39.07-3.9,75.7-16.42,110.74-33.25
	c24.61-11.82,48.29-25.56,68.87-44.09c17.06-15.36,32.73-31.81,42.34-52.81c11.99-26.2,15.84-54.5,15.21-82.85
	c-0.59-26.24-7.08-50.89-22.67-73.72c-18.7-27.37-42.21-47.72-71.67-61.63c-32.15-15.19-66.37-24.12-100.86-32.17
	c-32.91-7.68-66.21-13.64-98.27-24.89c-23.2-8.14-43.72-19.22-57.82-40.23c-9.27-13.81-13.33-29.23-12.2-45.3
	c1.38-19.73,7.36-38.49,19.56-54.57c3.43-4.53,7.53-9.08,12.33-11.96c28.65-17.26,60.01-21.93,92.4-15.81
	c26.25,4.96,51.92,12.55,76.45,23.73c29.86,13.6,57.66,30.16,81.68,52.71c5.66,5.32,11.53,10.41,18.02,16.26
	C738.68,1244.09,746.03,1188.24,749.8,1131.34z"/>
<path class="st1" d="M1257.96,1145.72c2.37,1.91,4.77,3.56,7.56,0.67c3.1,3.01,6.19,6.02,9.29,9.03c2.42,2.12,4.84,4.24,7.26,6.36
	c0.63,0.57,1.26,1.14,1.89,1.71l0.15,0.08c0.59,0.42,1.18,0.84,1.77,1.27l0.11,0.5l0.51-0.01c0.41,0.42,0.82,0.84,1.24,1.26
	c6.46,8.27,11.1,17.46,14.8,27.3c5.92,15.74,6.63,31.74,2.62,47.76c-6.12,24.47-19.33,44.79-38.16,61.56
	c-13.58,12.1-28.07,22.85-44.23,31.3c-2.02,1.06-3.68,2.8-5.97,4.59c4.53,5.54,8.88,10.29,12.59,15.49
	c13.71,19.23,27.57,38.37,40.69,58.01c12.95,19.38,24.84,39.46,37.6,58.97c14.02,21.44,31.13,40.39,49.27,58.35
	c7.79,7.72,16.68,14.33,25.27,21.62c7.46-3.71,10.14-9.96,10.71-17.29c0.43-5.51,0.34-11.06,0.34-16.59
	c0.02-83.64,0.02-167.28,0.02-250.92c0-10.15,0.28-20.3-0.07-30.44c-0.42-11.95-4.56-22.38-11.98-32.12
	c-13.94-18.31-31.74-31.56-51.69-42.18c-16.26-8.66-33.02-16.31-51.06-20.71c-3.59-1.49-7.17-2.98-11.86-4.92
	c2.94-0.61,4.63-0.96,6.31-1.31c6.13,0.31,12.25,0.63,18.38,0.94c5.57,0.25,11.13,0.5,16.7,0.75c14.13,0.36,28.25,0.72,42.38,1.08
	c3.73,0.12,7.46,0.23,11.2,0.35c5.48,0,10.97,0.01,16.45,0.01c3.75,0,7.49,0.01,11.24,0.01c7.36-0.01,14.71-0.02,22.07-0.04
	c14.78-0.12,29.56-0.25,44.34-0.37c16.59,0.02,33.18,0.04,49.77,0.06c3.72-0.01,7.44-0.02,11.16-0.04
	c8.59,0.01,17.17,0.02,25.76,0.03c2.37,0.09,4.73,0.17,7.1,0.26c1.36,0.04,2.71,0.08,4.07,0.12c5.52,0.32,11.04,0.64,16.56,0.96
	c20.92,0.13,41.84,0.27,62.76,0.4c-0.07,0.6-0.06,1.21,0.02,1.81c-23.47,11.64-40.6,29.59-52.08,52.95
	c-2.63,5.34-6.45,10.53-5.36,17.12c-0.39,3.07-0.78,6.14-1.17,9.21c-0.01,6.2-0.01,12.41-0.02,18.61c0,1.8,0,3.6,0,5.39
	c0,9.89,0,19.77,0,29.66c0,0.59,0,1.17,0,1.76c0,14.8-0.01,29.61-0.01,44.41c0,1.8,0,3.6,0,5.4c0,8.66,0,17.32,0,25.99
	c0,1.8,0,3.6,0,5.39c0,3.74,0,7.48,0,11.22c0,3.64,0,7.29,0,10.93c0,1.27,0,2.55,0,3.82c0,1.19,0,2.38,0,3.57c0,4.35,0,8.69,0,13.04
	c0,1.19,0,2.38,0,3.57c0.01,3.74,0.01,7.47,0.02,11.21c0,2.41,0.01,4.82,0.01,7.23c0,3.13,0,6.25,0,9.38c0,1.8,0,3.6,0,5.39
	c-0.01,8.66-0.01,17.33-0.02,25.99c0,2.41,0,4.82,0,7.24c-0.01,18.51-0.01,37.02-0.02,55.52c0.42,3.18,0.84,6.37,1.26,9.55
	c0.13,1.72,0.27,3.45,0.4,5.17c1.19,2.96,2.37,5.91,3.56,8.87c1.53,3.99,3.04,7.99,4.59,11.98c7.25,18.58,20.03,31.86,38.29,39.88
	c-0.1,0.85-0.21,1.69-0.31,2.54c-5.61,0.16-11.21,0.31-16.82,0.47c-8.01-0.29-16.01-0.58-24.02-0.87
	c-7.64-0.16-15.28-0.46-22.92-0.45c-44.73,0.07-89.45,0.19-134.18,0.36c-9.17,0.03-18.35,0.36-27.52,0.55
	c-22.12-0.24-44.24-0.66-66.37-0.67c-65.82-0.04-131.64,0.09-197.45,0.12c-3.06,0-6.13-0.35-9.19-0.54
	c-3.81-3.39-7.62-6.79-11.51-10.26c5.58-5.47,10.74-10.61,15.98-15.65c4.95-4.76,7.8-10.9,7.17-17.35
	c-0.77-7.81-2.14-16.09-5.57-23.02c-13.57-27.45-27.89-54.57-44.93-80.06c-9.86-14.75-20.63-28.9-31.18-43.17
	c-2.06-2.78-5.03-4.89-8.19-7.89c-0.66,2.13-1.11,2.92-1.12,3.72c-0.48,38.68-0.95,77.35-1.35,116.03
	c-0.08,7.78,1.2,15.39,5.15,22.19c11.02,19,24.75,35.73,41.98,49.5c1.12,0.89,1.31,2.94,1.94,4.45c-6.73,0.36-13.46,0.72-20.2,1.08
	c-14.18,0.27-28.36,0.53-42.55,0.8c-9.81,0.42-19.63,0.83-29.44,1.25c-1.88,0.18-3.77,0.36-5.65,0.54
	c-6.73,0.44-13.46,0.89-20.19,1.33c-1.87,0.2-3.75,0.39-5.62,0.59c-9.82,1.56-19.64,3.12-29.46,4.68c-1.24,0.34-2.48,0.68-3.72,1.02
	c-9.17,3.09-19.1,4.83-27.35,9.54c-16.8,9.58-32.71,20.72-48.94,31.29c-1.25,0.81-2.14,2.16-3.2,3.26
	c-1.73,1.33-3.46,2.66-5.19,3.99c-3.15,3.18-6.31,6.37-9.46,9.55c-0.51,0.5-1.02,1-1.53,1.49c-0.64,0.68-1.29,1.36-1.93,2.04
	c-0.23-2.06-0.47-4.12-0.7-6.17c3.51-8.08,7.01-16.17,10.52-24.25c0.74-1.68,1.47-3.36,2.21-5.04c1.12-2.61,2.24-5.22,3.36-7.83
	c1.11-3.56,2.23-7.12,3.35-10.68c0.38-1.81,0.77-3.62,1.15-5.43c0.33-1.27,0.66-2.54,0.99-3.81c0.29-1.19,0.58-2.39,0.86-3.58
	c0.33-1.26,0.66-2.52,1-3.78c0.29-1.81,0.58-3.63,0.87-5.44c0.26-1.27,0.52-2.53,0.78-3.8c0.33-1.82,0.66-3.63,0.99-5.45
	c0.23-1.26,0.47-2.52,0.7-3.78c0.41-2.42,0.83-4.84,1.24-7.27c0.17-1.27,0.35-2.54,0.52-3.81c0.45-3.65,0.89-7.3,1.34-10.96
	c0.32-2.49,0.63-4.99,0.95-7.48c0.32-3.04,0.64-6.08,0.96-9.11c0.34-3.73,0.67-7.45,1.01-11.18c0.31-24.59,0.68-49.18,0.9-73.77
	c0.1-11.68-0.11-23.36-0.18-35.04c0.2-1.19,0.58-2.39,0.59-3.58c0.41-54.79,0.8-109.59,1.16-164.38c0.01-1.81-0.33-3.63-0.51-5.45
	c-0.07-8.6-0.13-17.2-0.2-25.79c-0.3-3.12-0.61-6.24-0.91-9.36c-0.19-1.82-0.39-3.64-0.58-5.45c-0.43-1.87-0.86-3.74-1.29-5.6
	c-0.27-1.2-0.53-2.4-0.8-3.6c-0.58-1.72-1.16-3.44-1.74-5.16c-3.53-10.65-9.7-18.56-21.42-20.77c-4.29,0.03-8.58,0.05-12.87,0.08
	c-14.24,1.71-24.28,8.57-28.15,22.98c-0.84,2.18-1.69,4.35-2.53,6.53c-1.15,3.82-2.3,7.64-3.45,11.47c-2.38,3-4.76,6-7.14,9
	c0.19-10.55,0.38-21.09,0.57-31.64c0.17-1.27,0.34-2.54,0.52-3.8c6.28-16.02,14-31.02,28.77-41.11c2.75-1.88,5.38-3.93,8.07-5.9
	c3.62-1.66,7.28-3.25,10.86-4.99c9.55-4.62,19.55-7.32,30.21-7.1c25.51,0.52,51.02,1.36,76.53,1.59c15.05,0.14,30.1-0.86,45.15-0.96
	c35.05-0.24,70.1-0.26,105.16-0.35c28.89-0.08,57.79,0.08,86.68-0.28c22.95-0.29,45.1,3.64,66.76,10.91
	c0.85,0.29,1.81,0.26,2.72,0.39c0.64,0.34,1.28,0.68,1.91,1.02c0.76,0.23,1.52,0.45,2.28,0.68
	C1257.1,1145.24,1257.53,1145.48,1257.96,1145.72z M1156.63,1334.71c2.47-1.37,4.2-2.48,6.05-3.33
	c21.58-9.97,41.46-22.62,60.52-36.81c17.28-12.88,31.41-27.79,40.66-47.73c5.79-12.47,6.35-24.62,4.47-37.48
	c-0.39-2.67-1.15-5.45-2.43-7.81c-8.46-15.61-22.32-24.39-38.95-28.52c-15.77-3.92-32.01-5.67-48.29-5.69
	c-90.42-0.11-180.84-0.05-271.26-0.05c-2.97,0-5.95,0-9.89,0c0.87,2.38,1.2,3.8,1.87,5.03c6.74,12.45,9.56,26.02,9.52,39.88
	c-0.24,85.47,1.9,170.95-1.98,256.4c-1.62,35.69-4.49,71.17-11.56,106.24c-1.24,6.12-2.51,12.24-4.01,19.49
	c41.78-24.45,86.32-28.42,133.11-24.95c-1.89-3.89-3.19-6.62-4.53-9.32c-9.14-18.45-14.5-37.45-13.1-58.55
	c1.73-26.04,1.77-52.19,2.42-78.29c0.21-8.61,0.41-17.24-0.09-25.82c-0.38-6.58,2.37-10.18,8.08-12.82
	c11.99-5.55,23.97-11.16,35.58-17.44c6.08-3.29,10.53-2.24,14.5,2.61c5.24,6.39,10.36,12.88,15.25,19.53
	c11.79,16.05,24.19,31.72,34.9,48.47c12.38,19.36,23.75,39.43,34.49,59.76c6.7,12.68,11.91,26.23,16.89,39.71
	c3.57,9.66,2.58,19.81-1.36,30.31c61.7,0.68,122.52-3.51,183.3,0.3c0.18,0.01,0.44-0.29,0.56-0.51c0.14-0.26,0.16-0.59,0.38-1.45
	c-2.54-1.82-5.36-3.63-7.95-5.73c-8.82-7.14-18.22-13.73-26.21-21.71c-21.62-21.58-38.95-46.62-55.31-72.27
	c-10.39-16.3-19.9-33.16-29.92-49.7c-1.9-3.13-4.14-6.09-6.48-8.91c-9.04-10.86-18.47-21.4-27.21-32.5
	c-11.08-14.08-22.9-27.25-38.25-36.85C1159.19,1337.44,1158.26,1336.23,1156.63,1334.71z M1392.68,1171.95
	c-0.55,0.63-1.1,1.27-1.65,1.9c3.34,2.68,6.79,5.22,9.99,8.07c11.88,10.59,19.51,24.12,22.86,39.26c3.7,16.72,7.08,33.93,7.22,50.95
	c0.73,83.61,0.38,167.24,0.26,250.86c-0.01,7.03-0.68,14.13-1.87,21.06c-1.4,8.17-3.69,16.17-9.68,22.49
	c-0.96,1.01-1.57,2.34-2.9,4.35c44.17,0,87.25,0,131.28,0c-1.4-3.06-2.55-5.46-3.6-7.91c-4.26-9.86-7.77-19.85-7.77-30.84
	c0.05-104.52,0.12-209.04-0.08-313.57c-0.03-14.92,3.73-28.37,11.51-40.92c0.85-1.36,1.08-3.11,1.93-5.68
	C1497.03,1171.95,1444.85,1171.95,1392.68,1171.95z"/>
<path class="st1" d="M1995.89,1263.42c-0.38,3.63-0.76,7.25-1.14,10.88c-0.34,2.52-0.69,5.03-1.03,7.55
	c-0.28,4.87-0.56,9.73-0.84,14.6c-0.44,2.65-0.98,5.29-1.28,7.96c-0.31,2.68-1.67,3.67-4.25,3.16c-7.89-9.92-15.64-19.96-23.75-29.7
	c-2.44-2.93-5.87-5.02-8.85-7.49c-1.92-1.33-3.83-2.66-5.75-3.99c0,0,0.1,0.1,0.1,0.1c-2.22-2.83-4.08-6.05-6.7-8.42
	c-18.22-16.44-39.22-28.37-62.34-36.3c-16.54-5.68-33.53-9.37-51.33-8.35c-19.45,1.11-32.21,12.82-33.39,30.91
	c-0.55,8.45,2.29,14.85,8.83,19.99c8.34,6.55,17.88,10.53,27.88,13.62c23.95,7.42,47.87,14.94,71.85,22.31
	c14.25,4.38,28.58,8.53,42.87,12.78c6.14,2.49,12.27,4.97,18.41,7.46c2.53,1.04,5.05,2.08,7.58,3.11
	c7.64,4.7,15.27,9.39,22.91,14.09c0.99,0.83,1.97,1.65,2.96,2.48c1.8,1.42,3.6,2.84,5.4,4.27c0.62,0.59,1.23,1.18,1.85,1.78
	c0,0,0.05,0.05,0.05,0.05c0.61,0.58,1.21,1.16,1.82,1.74c6.63,7.49,13.26,14.98,19.88,22.47c0.82,0.96,1.64,1.93,2.46,2.89
	c0,0,0.29,0.48,0.29,0.48c0.43,0.68,0.86,1.36,1.28,2.04c2.47,5.05,4.93,10.11,7.41,15.15c0.07,0.9-0.15,1.95,0.23,2.7
	c7.82,15.38,8.4,32.4,10.45,48.95c0.91,7.37-1.47,15.12-2.05,22.72c-2.08,27.21-13.4,50.4-30.68,71.03
	c-12.44,14.56-27.02,26.8-42.89,37.29c-8.88,5.87-19.04,9.78-28.58,14.66c-1.02,0.52-1.76,1.59-2.63,2.41
	c-1.12,0.36-2.24,0.72-3.35,1.08c-0.71,0.24-1.41,0.48-2.12,0.72c-0.64,0.33-1.29,0.66-1.93,0.98c-2.42,0.84-4.84,1.68-7.27,2.52
	c-0.84,0.32-1.67,0.64-2.51,0.96c-10.13,3-20.27,5.99-30.4,8.99c-1.31,0.2-2.63,0.39-3.94,0.59c-6.73,0.94-13.47,1.88-20.2,2.82
	c-1.88,0.27-3.77,0.54-5.65,0.82c-3.04,0.27-6.09,0.54-9.13,0.81c-3.72,0.36-7.44,0.73-11.16,1.09c-5.51,0.3-11.02,0.6-16.52,0.9
	c-3.11,0.31-6.22,0.63-9.32,0.94c-11.7,0-23.4-0.01-35.1-0.01c-4.3-0.02-8.61-0.03-12.91-0.05c-3.07,0.23-6.14,0.45-9.22,0.68
	c-9.86-0.2-19.72-0.4-29.57-0.6c-3.1-0.35-6.21-0.7-9.31-1.05c-3.66-0.27-7.33-0.55-10.99-0.82c-3.1-0.39-6.2-0.77-9.3-1.16
	c-1.21-0.22-2.42-0.44-3.63-0.65c-1.87-0.36-3.74-0.72-5.61-1.08c-1.21-0.22-2.43-0.45-3.64-0.67c-1.25-0.36-2.5-0.73-3.75-1.09
	c-8.73-2.5-17.45-5.01-26.18-7.51c-1.73-0.63-3.46-1.25-5.19-1.88c-6.61-4-13.21-8.01-19.82-12.01
	c-4.96-5.74-9.92-11.47-14.89-17.21c-3.93-7.16-8.36-14.09-11.65-21.53c-3.68-8.32-6.32-17.11-9.42-25.69
	c-0.45-1.24-0.91-2.48-1.36-3.71c-0.37-1.22-0.74-2.43-1.12-3.65c-0.23-1.25-0.45-2.5-0.68-3.75c-0.37-3.06-0.75-6.11-1.12-9.17
	c-0.24-1.87-0.49-3.73-0.73-5.6c-0.27-4.29-0.55-8.58-0.82-12.87c-0.34-2.48-0.68-4.96-1.02-7.44c-0.26-3.67-0.52-7.35-0.77-11.02
	c-0.33-4.95-0.67-9.9-1-14.85c0-14.25,0.1-28.51-0.04-42.76c-0.07-7.27-0.54-14.54-0.83-21.81c0.29-10.44,0.58-20.89,0.87-31.33
	c0.18-1.26,0.35-2.52,0.53-3.77c0.4-2.45,0.8-4.89,1.2-7.34c1.22-1.22,2.44-2.44,3.66-3.66c1.56,5.55,2.98,11.15,4.72,16.65
	c5.92,18.72,11.62,37.44,19.9,55.42c8.68,18.84,18.97,36.56,31.66,52.78c6.38,8.16,13.6,16.33,22.1,22.03
	c20.84,13.97,42.04,27.59,66.44,35.1c24.23,7.46,48.78,9.91,73.5,3.94c15.03-3.63,28.51-10.07,37.5-24.37
	c8.69-13.82,8.74-36.9-13.03-46.14c-2.53-1.07-5.08-2.16-7.7-2.97c-10.82-3.38-21.7-6.56-32.5-9.98
	c-27.43-8.7-54.75-17.76-82.28-26.17c-30.17-9.21-57.4-23.12-78.73-46.98c-11.16-12.49-19.92-26.65-24.59-42.7
	c-5.41-18.6-6.68-37.56-4.37-57.12c3.12-26.48,14.04-49.07,29.86-69.83c0.52-0.62,1.04-1.24,1.56-1.86l0.23-0.31
	c0.46-0.52,0.92-1.04,1.38-1.56l0.46,0l0-0.46c0.41-0.42,0.82-0.83,1.22-1.25c7.05-6.68,14.11-13.37,21.16-20.05
	c0.82-0.65,1.64-1.29,2.46-1.94c1.57-1.38,3.14-2.77,4.71-4.15c0.75-0.5,1.49-1,2.24-1.5c2.99-1.82,5.97-3.64,8.96-5.47
	c1.1-0.72,2.2-1.45,3.3-2.17l0.23-0.16c0.73-0.48,1.46-0.97,2.2-1.45c6.72-3.41,13.45-6.83,20.17-10.24
	c0.53-0.32,1.07-0.64,1.6-0.96c3.83-1.6,7.65-3.2,11.48-4.79c0.65,0.06,1.17-0.17,1.55-0.7c1.07-0.46,2.15-0.93,3.22-1.39
	c2-0.74,4-1.48,6-2.22c0.6-0.18,1.2-0.36,1.8-0.54c1.86-0.6,3.72-1.2,5.59-1.8c1.26-0.43,2.52-0.85,3.77-1.28
	c1.23-0.24,2.46-0.48,3.69-0.73c0.8-0.36,1.6-0.71,2.4-1.07c1.65-0.2,3.31-0.41,4.96-0.61c0.89-0.4,1.77-0.8,2.66-1.2
	c9.01-1.66,18.02-3.33,27.04-4.96c16.69-3.02,33.5-4.14,50.33-1.65c23.29,3.44,46.47,7.62,69.78,10.88
	c14.56,2.03,29.03-0.07,42.26-6.4c12.76-6.11,24.15-14.54,33.77-25.14c10.32-11.37,20.67-22.71,27.69-36.58
	c0.99-1.58,1.98-3.16,2.97-4.74c1.26-3.04,2.52-6.09,3.78-9.13c0.95,1.88,1.89,3.76,2.84,5.63c-0.32,3.02-0.65,6.04-0.97,9.06
	c-0.26,2.52-0.51,5.04-0.77,7.57c-0.36,3.63-0.72,7.26-1.09,10.89c-0.34,3.13-0.69,6.26-1.03,9.39c-0.27,3.03-0.53,6.05-0.8,9.08
	c-0.39,3.12-0.77,6.25-1.16,9.37c-0.25,3.03-0.5,6.05-0.75,9.08c-0.31,2.52-0.61,5.04-0.92,7.56c-0.15,1.21-0.29,2.42-0.44,3.63
	c-1.14,8.63-2.27,17.26-3.41,25.89c-0.21,2.42-0.42,4.84-0.63,7.26c-0.42,3.73-0.84,7.46-1.26,11.2c-0.22,2.42-0.43,4.83-0.65,7.25
	c-0.35,3.13-0.7,6.25-1.05,9.38c-0.22,2.42-0.44,4.84-0.65,7.26c-0.39,3.73-0.77,7.47-1.16,11.2c-0.23,2.42-0.46,4.84-0.7,7.25
	c-0.38,3.74-0.77,7.47-1.15,11.21c-0.24,2.42-0.47,4.83-0.71,7.25c-0.41,3.73-0.81,7.46-1.22,11.2c-0.27,3.02-0.55,6.05-0.82,9.07
	C1996.36,1259.6,1996.12,1261.51,1995.89,1263.42z M1978.75,1139.96c-6.85,4.9-11.84,8.92-17.25,12.25
	c-16.05,9.86-33.35,15.58-52.46,14.51c-6.13-0.34-12.27-0.73-18.37-1.35c-7.58-0.77-15.2-1.44-22.69-2.79
	c-26.42-4.77-52.94-7.23-79.64-3.05c-33.47,5.24-64.72,16.58-92.59,36.1c-17.34,12.15-31.82,27.35-40.99,46.53
	c-8.87,18.54-12.38,38.14-9.05,59.02c3.75,23.48,15.46,41.5,33.61,56.12c16.17,13.03,35.3,19.6,54.63,25.76
	c39.12,12.47,78.43,24.39,117.39,37.33c21.89,7.27,36.71,23.26,42.21,45.27c7.04,28.17-3.45,52.1-24.35,71.2
	c-21.77,19.89-48.95,26.28-77.41,27.25c-26.01,0.89-51.07-4.45-75.64-13.37c-34.53-12.54-63.01-32.7-84.66-62.44
	c-0.89-1.22-2.26-2.08-4.49-4.07c0.49,3.98,0.73,6.4,1.1,8.79c2.63,17.08,10.68,31.9,19.55,46.33c2.72,4.43,5.81,8.7,9.19,12.65
	c13.72,15.96,32.29,23.48,52.08,27.48c25.66,5.19,51.83,7.54,77.99,6.32c28.49-1.33,56.98-3.91,84.83-10.5
	c35.24-8.33,68.88-20.56,97.44-43.79c16.17-13.16,29.25-28.49,36.52-48.69c6.33-17.58,8.34-35.66,5.1-53.4
	c-3.45-18.86-9.95-36.95-24.78-51.29c-11.97-11.57-24.86-21.35-40.36-26.57c-34.27-11.53-68.85-22.18-103.46-32.68
	c-16.17-4.91-32.28-9.81-47.41-17.45c-10.54-5.33-20.01-12.38-26.87-21.9c-9.1-12.63-12.43-26.91-9.55-42.68
	c6.18-33.94,25.87-53.36,59.65-58.28c26.31-3.83,52.25,0.52,76.98,9.04c27.74,9.56,52.01,25.05,68.87,50.15
	c0.86,1.27,2.37,2.11,4.61,4.05C1971.94,1207.45,1975.26,1174.55,1978.75,1139.96z"/>
<path class="st2" d="M2801.11,1773.33c2.94,3.02,5.88,6.04,8.82,9.06c1.51,1.04,3.02,2.07,4.53,3.11
	c10.98,10.42,24.72,15.75,38.58,20.84c1.13,1.04,2.26,2.08,3.39,3.11c-0.58,0.62-1.16,1.23-1.74,1.85
	c-4.21,0.12-8.42,0.23-12.63,0.35c-8.03-0.3-16.06-0.59-24.09-0.89c-1.76-0.01-3.52-0.02-5.27-0.03c-4.88-0.06-9.77-0.17-14.65-0.17
	c-127.43-0.01-254.86-0.01-382.28-0.03c-2.76,0-5.55-0.01-8.25-0.49c-0.67-0.12-1.02-2.05-1.51-3.16
	c9.95-2.38,19.91-4.76,29.86-7.14c1.26-0.41,2.52-0.81,3.78-1.22c6.74-2.61,13.47-5.23,20.21-7.84c1.91-1.06,3.81-2.11,5.72-3.17
	c3.65-2.5,7.3-5.01,10.96-7.51c1.85-1.21,3.69-2.42,5.54-3.63c0.65-0.57,1.29-1.15,1.94-1.72c1.88-1.85,3.76-3.71,5.65-5.56
	c3.1-4.73,6.68-9.21,9.15-14.25c2.24-4.55,4.17-9.61,4.65-14.59c0.79-8.16,0.28-16.45,0.32-24.68c0.2-3.04,0.59-6.09,0.59-9.13
	c0.03-93.04,0.03-186.07,0-279.11c0-3.04-0.38-6.09-0.59-9.13c-0.27-20.83-0.55-41.65-0.82-62.48c-0.16-1.92-0.32-3.83-0.47-5.75
	c-0.29-5.48-0.57-10.97-0.86-16.45c-0.94-8.05-1.89-16.11-2.83-24.16c-3.35-14.1-6.7-28.2-10.05-42.29
	c-0.42-1.27-0.84-2.53-1.26-3.8c-0.71-2.43-1.42-4.86-2.13-7.29c-0.53-1.26-1.06-2.53-1.59-3.79c-1.14-2.49-2.28-4.98-3.42-7.47
	c-1.26-1.83-2.52-3.66-3.79-5.49c-4.83-8.05-9.65-16.1-14.48-24.15c-1.25-1.32-2.51-2.63-3.76-3.95c-2.04-2.62-3.81-5.52-6.18-7.8
	c-8.79-8.44-15.91-17.73-16.9-30.46c-0.37-1.27-0.75-2.53-1.12-3.8c-1.51-6.73-3.02-13.46-4.53-20.19c-0.35-1.27-0.69-2.53-1.04-3.8
	c-0.33-1.8-0.66-3.61-0.99-5.41c-0.3-1.27-0.6-2.54-0.9-3.81c0.02-1.24,0.04-2.47,0.06-3.71c2.88-0.62,5.73-1.53,8.64-1.78
	c4.5-0.38,9.04-0.31,13.57-0.44c1.84,0.08,3.68,0.16,5.51,0.23c9.82,0,19.64-0.01,29.46-0.01c2.48,0.02,4.96,0.04,7.45,0.06
	c13.52,0,27.05,0.01,40.57,0.01c4.91-0.1,9.82-0.2,14.73-0.3c12.35-0.01,24.69-0.02,37.04-0.03c3.65,0,7.3,0,10.95,0
	c1.21,0.14,2.42,0.39,3.63,0.39c27.25,0.04,54.49,0.1,81.74,0.04c20.2-0.04,40.39-0.26,60.59-0.4c2.45,0.11,4.89,0.21,7.34,0.32
	c17.35,0.95,34.69,2.39,52.06,2.74c21.07,0.42,42.16-0.1,63.24-0.17c2.52-0.01,5.44-0.92,7.23,2.66c-3.41,2.64-6.69,5.18-9.96,7.72
	c0,0,0.02-0.01,0.02-0.01c-1.8,1.27-3.6,2.53-5.4,3.8l-0.06,0.04c-2.56,1.74-5.12,3.48-7.68,5.23c0,0,0.05-0.05,0.05-0.05
	c-3.68,3.14-7.35,6.27-11.03,9.41c-0.59,0.59-1.19,1.17-1.78,1.76c-6.69,3.22-11.5,8.32-14.96,14.79c-0.52,0.67-1.04,1.34-1.56,2.01
	c-1.28,1.8-2.56,3.6-3.85,5.41c0,0,0.03-0.04,0.03-0.04c-3.67,4.96-7.34,9.92-11.01,14.88c0,0,0.01-0.02,0.01-0.02
	c-1.22,1.86-2.44,3.72-3.66,5.58c0,0,0,0,0,0c-1.79,3.09-3.58,6.18-5.38,9.26c-0.52,0.19-0.7,0.56-0.53,1.09
	c-1.55,3.35-3.11,6.69-4.66,10.04c-0.74,2.44-1.48,4.89-2.23,7.33c-0.38,1.87-0.76,3.75-1.14,5.62c-0.25,1.82-0.5,3.63-0.75,5.45
	c-0.45,3.71-0.91,7.42-1.36,11.13c-0.17,17.79-0.46,35.58-0.49,53.37c-0.09,45.74-0.08,91.49-0.08,137.23
	c0,36.85,0.08,73.69,0.08,110.54c0,35.31-0.04,70.62-0.11,105.93c-0.05,23.65-0.2,47.3-0.22,70.95c0,2.42,0.63,4.85,0.97,7.27
	c0.4,1.26,0.79,2.52,1.19,3.78c0.77,2.44,1.54,4.88,2.31,7.32c0.53,1.24,1.07,2.47,1.6,3.71c0.58,1.24,1.15,2.48,1.73,3.72
	c1.1,1.39,2.19,2.79,3.29,4.18c1.25,1.73,2.5,3.46,3.75,5.18C2798.77,1770.51,2799.94,1771.92,2801.11,1773.33z M2748.43,1760.91
	c-7.52-10.44-9.23-21.55-9.29-33.03c-0.12-22.76-0.14-45.52-0.14-68.28c0.01-138.41,0.04-276.81,0.01-415.21
	c0-8.37,0.8-16.47,3.53-24.48c4.81-14.13,13.51-25.27,24.85-34.68c2.33-1.93,6.28-3.3,4.66-8.09c-89.96,0-179.81,0-270.97,0
	c1.14,3.14,1.3,5.44,2.52,6.69c18.61,18.99,27.27,43.54,37.04,67.29c7.48,18.19,7.16,38.02,7.62,57.26
	c1.12,46.72,1.05,93.46,1.44,140.2c0.8,95.34,1.52,190.68,2.44,286.02c0.11,10.86-0.41,21.28-9.34,30.96
	C2612.13,1763.99,2679.66,1762.47,2748.43,1760.91z"/>
<path class="st0" d="M2443.22,1244.8c1.66,8.54,3.31,17.07,4.97,25.61c0.26,1.29,0.52,2.58,0.78,3.87c0.35,1.79,0.69,3.57,1.04,5.36
	c0.28,1.29,0.55,2.58,0.83,3.87c0.33,1.79,0.65,3.58,0.98,5.37c0.29,1.29,0.58,2.58,0.86,3.87c0.31,1.79,0.63,3.58,0.94,5.37
	c0.27,1.29,0.54,2.59,0.81,3.88c0.2,1.19,0.41,2.37,0.61,3.56c0.42,1.89,0.84,3.78,1.26,5.67c0.36,1.78,0.73,3.57,1.09,5.35
	c-1.06,1.48-2.12,2.97-3.18,4.45c-4.18-6.37-8.36-12.74-12.53-19.12c-1.28-1.22-2.56-2.45-3.84-3.67
	c-4.92-6.14-9.84-12.27-14.76-18.41c-1.27-1.16-2.54-2.33-3.81-3.49c-9.86-10.96-21.89-19.05-34.65-26.17
	c-1.97-1.02-3.93-2.04-5.9-3.06c-13.09-8.63-27.69-13.55-42.7-17.48c-1.67-0.44-3.27-1.12-4.91-1.69c-0.76-0.36-1.51-0.72-2.27-1.08
	c-1.2-0.18-2.41-0.37-3.61-0.55c-1.3-0.36-2.6-0.72-3.9-1.08c-2.38-0.25-4.76-0.49-7.14-0.74c-2.41-1.45-3.43-0.81-3,2
	c0.04,23.94,0.09,47.88,0.13,71.82c-0.21,1.81-0.6,3.63-0.6,5.44c0.11,68.71,0.23,137.42,0.45,206.13c0.01,3.31,0.86,6.61,1.32,9.92
	c0.1,3.06,0.21,6.12,0.31,9.19c0.39,1.34,0.79,2.68,1.18,4.03c2.11,5.38,4.22,10.76,6.33,16.15c1.43,2.19,2.87,4.38,4.3,6.56
	c5.2,9.35,12.6,16.47,21.94,21.63c2.14,1.68,4.29,3.36,6.43,5.04c4.09,2.6,8.18,5.21,12.27,7.81c5.42,3.66,10.84,7.3,16.25,10.98
	c2.89,1.96,5.75,3.97,8.62,5.96c-13.01,0.1-26.03,0.2-39.04,0.3c-3.08,0-6.17,0-9.25-0.01c-2.46,0-4.93,0-7.39,0
	c-3.66-0.19-7.32-0.54-10.98-0.54c-60.46-0.03-120.92-0.02-181.39-0.02c-31.91,0-63.81-0.02-95.72-0.03
	c1.89-1.32,3.77-2.63,5.66-3.95c11.03-3.86,22.07-7.71,33.1-11.57c1.62-0.81,3.25-1.61,4.87-2.42c7.38-5.29,15.6-9.72,21.95-16.04
	c12.8-12.74,20.22-28.26,20.17-46.9c-0.14-56.55-0.1-113.1-0.13-169.65c-0.01-21.82,0.02-43.64-0.03-65.46
	c-0.01-3.05-0.32-6.11-0.49-9.16c0.99-19.36,0.73-38.7,0.06-59.87c-10.07,3.55-18.58,6.55-27.08,9.54
	c-1.48,0.71-2.97,1.42-4.45,2.14c-0.61,0.16-1.22,0.32-1.83,0.47c-9.2,4.93-18.39,9.87-27.59,14.8c-1.56,0.9-3.12,1.81-4.68,2.71
	c-3.43,2.62-6.87,5.24-10.3,7.87c-1.27,1.25-2.55,2.49-3.82,3.74c-15.71,12.72-29.77,26.95-40.47,44.26
	c-1.53,0.09-3.05,0.18-4.58,0.27c0.27-3.12,0.54-6.23,0.81-9.35c0.44-2.5,0.88-5,1.32-7.5c0.14-1.2,0.28-2.4,0.42-3.6
	c0.55-4.32,1.1-8.65,1.65-12.97c0.14-1.81,0.29-3.63,0.43-5.44c0.25-1.91,0.51-3.82,0.76-5.73c0.38-3.63,0.76-7.25,1.14-10.88
	c0.24-1.91,0.49-3.82,0.74-5.73c0.35-3.63,0.71-7.26,1.06-10.89c0.24-1.91,0.47-3.82,0.71-5.73c0.34-3.02,0.68-6.04,1.02-9.06
	c0.23-1.9,0.45-3.81,0.68-5.71c0.45-3.01,0.89-6.02,1.34-9.02c0.15-3.14,0.3-6.28,0.45-9.42c0.43-4.25,0.87-8.5,1.3-12.75
	c0.26-4.36,0.52-8.72,0.78-13.08c0.37-4.87,0.74-9.73,1.12-14.6c0.32-2.51,0.63-5.03,0.95-7.54c0.29-3.03,0.58-6.05,0.86-9.08
	c0.33-2.51,0.66-5.02,0.99-7.53c0.26-3.03,0.52-6.07,0.78-9.1c0.31-2.51,0.63-5.02,0.94-7.53c0.24-1.81,0.47-3.63,0.71-5.44
	c0.64-5.53,1.28-11.06,1.92-16.59c0.1-1.21,0.19-2.42,0.29-3.63c0.26-1.9,0.53-3.81,0.79-5.71c0.32-3.64,0.64-7.28,0.96-10.92
	c0.3-2.51,0.6-5.02,0.91-7.54c0.58-5.1,1.17-10.21,1.75-15.31c1.08,0.39,2.93,0.55,3.13,1.21c0.85,2.82,1.22,5.79,1.77,8.71
	c0.26,4.88,0.51,9.76,0.77,14.63c0.33,2.51,0.66,5.02,1,7.54c0.32,2.41,0.64,4.81,0.96,7.22c0.26,1.29,0.52,2.59,0.78,3.88
	c1.52,7.33,3.05,14.65,4.57,21.98c0.85,1.5,1.69,3,2.54,4.5c-0.07,0.54,0.14,0.91,0.63,1.13c1,1.51,1.99,3.02,2.99,4.53
	c2.31,2.4,4.63,4.8,6.94,7.2c1.57,0.87,3.13,1.74,4.7,2.62c5.84,2.95,12,3.63,18.41,2.58l0.85,0.32l0.83-0.36
	c1.53,0.08,3.06,0.22,4.59,0.22c85.01,0.01,170.02,0.02,255.03-0.01c2.12,0,4.25-0.37,6.37-0.57c12.48,0.58,25.14,1.82,36.94-3.48
	c9.05-4.07,18.26-8.3,23.67-17.46c1.26,0.35,2.52,0.7,3.78,1.06c0.37,2.34,0.73,4.67,1.1,7.01c0.27,1.28,0.55,2.56,0.82,3.84
	c0.75,3.67,1.49,7.33,2.24,11c0.67,1.82,1.34,3.64,2.02,5.46c1.31,5.55,2.61,11.09,3.92,16.64c0.34,1.28,0.69,2.55,1.03,3.83
	c1.07,5.48,2.13,10.96,3.2,16.44c0.25,1.27,0.51,2.53,0.76,3.8c0.35,1.81,0.71,3.62,1.06,5.43c0.27,1.26,0.54,2.53,0.81,3.79
	c0.34,1.81,0.67,3.62,1.01,5.44c0.27,1.27,0.53,2.53,0.8,3.8c0.34,1.81,0.67,3.62,1.01,5.43c0.27,1.27,0.54,2.54,0.8,3.81
	c0.19,1.21,0.38,2.41,0.58,3.62c0.33,1.28,0.65,2.56,0.98,3.84c0.18,1.19,0.36,2.39,0.54,3.58c1.16,4.32,2.31,8.63,3.47,12.95
	c0.22,1.2,0.45,2.41,0.67,3.61C2442.6,1242.24,2442.91,1243.52,2443.22,1244.8z M2411.29,1238.68c-1.64-4.22-3.4-8.39-4.88-12.66
	c-5.12-14.77-11.51-29.18-12.99-45.02c-0.3-3.23-1.3-6.39-1.87-9.04c-9.47,0.6-18.01,1.6-26.54,1.61
	c-92.61,0.12-185.22,0.08-277.83,0.09c-8.6,0-17.21,0.06-25.81-0.01c-4.29-0.03-6.67,1.56-7.65,6.1
	c-3.94,18.32-8.22,36.56-12.3,54.85c-0.43,1.94-0.37,3.99-0.53,6.01c0.85,0.04,1.28,0.19,1.44,0.04c1.14-0.99,2.32-1.96,3.32-3.08
	c13.79-15.51,30.33-27.29,50.34-32.7c15.97-4.31,32.5-6.76,48.9-9.2c7.44-1.11,15.17-0.19,23.74-0.19
	c0.64,5.64,1.59,10.1,1.59,14.56c0.1,58.76,0.07,117.52,0.06,176.28c-0.01,44.92-0.07,89.83-0.04,134.75
	c0.01,18.26-3.41,35.35-15.88,49.6c-0.46,0.53-0.29,1.61-0.41,2.45c16.7,1.83,131.57,1.04,138.07-1.04
	c-0.83-1.34-1.51-2.67-2.4-3.84c-11.87-15.58-15.8-33.47-15.83-52.67c-0.15-106.13-0.4-212.27-0.58-318.4c0-1.42,0.5-2.84,0.76-4.24
	c10.3,0,20.11-0.6,29.82,0.11c27.08,2,52.79,9.45,75.78,23.88c10.48,6.58,19.03,16.22,28.46,24.48c1.15,3.07,2.91,5.49,7.27,6.66
	c-0.67-2.51-0.93-4.24-1.6-5.8C2413.15,1240.96,2412.11,1239.86,2411.29,1238.68z"/>
<path class="st0" d="M1204.63,1110.05c-3.68-0.11-7.36-0.32-11.04-0.31c-124.78,0.2-249.56,0.43-374.34,0.65
	c-3.62,0.01-7.24,0-11.44,0c0-27.13,0-53.43,0-79.73c0.13-1.3,0.26-2.61,0.39-3.91c0.33-3.65,0.66-7.3,0.99-10.95
	c0.72-0.67,1.44-1.33,2.17-2c39.37,0.03,78.74,0.1,118.11,0.07c48.29-0.04,96.59-0.15,144.88-0.26c2.76-0.01,5.52-0.24,8.28-0.36
	c3.04,0.22,6.09,0.62,9.13,0.62c145.05-0.27,290.11-0.58,435.16-0.93c2.71-0.01,5.43-0.52,8.14-0.8c2.45,0.11,4.91,0.31,7.36,0.31
	c131.35-0.2,262.7-0.42,394.05-0.66c2.76-0.01,5.52-0.24,8.28-0.36c3.33,0.22,6.66,0.62,9.99,0.63c21.98,0.08,43.96,0.08,65.95,0.11
	c-6.34,20.9-17.03,39.23-32,55.19c-4.16,4.43-7.1,10-10.77,14.91c-2.74,3.67-5.52,7.37-8.71,10.65
	c-10.5,10.79-22.57,15.72-38.45,15.62c-95.85-0.56-191.71-0.07-287.57,0.1c-5.21,0.01-10.43,0.25-15.64,0.39
	c-3.35-0.22-6.7-0.65-10.05-0.64c-134.29,0.25-268.58,0.54-402.87,0.86C1211.29,1109.24,1207.96,1109.77,1204.63,1110.05z
	 M1973.1,1037.62c-379.27,0.82-757.18,1.64-1135.4,2.46c0,15.27,0,29.27,0,44.26c5.05,0,9.58,0.01,14.11,0
	c320.54-0.65,641.08-1.31,961.61-1.96c38.76-0.08,77.52-0.15,116.28-0.2c4.32-0.01,8.25-0.18,12-3.35
	C1954.77,1067.76,1964.15,1054,1973.1,1037.62z"/>
<path class="st3" d="M2212.62,1735.78c-19.88,14.84-39.77,29.68-61.63,46c27.1,6.26,50.69,14.24,68.71,33.35
	c7.11,7.54,13.76,15.28,18.08,24.78c5.78,12.7,10.39,25.75,11.92,39.73c0.08,0.69,0.17,1.39,0.25,2.08
	c0.09,2.99,0.18,5.98,0.27,8.97c-0.04,5.01-0.07,10.01-0.11,15.02c-0.08,2.99-0.15,5.99-0.23,8.98c-0.11,0.67-0.22,1.35-0.33,2.02
	c-3.35,20.23-9.84,39.3-21.96,56.02c-11.57,15.96-26.05,28.75-43.06,38.89c-18.94,11.29-39.09,19.27-60.6,23.76
	c-10.33,2.15-20.83,3.52-31.25,5.24c-1.86,0.33-3.72,0.67-5.57,1c-2.56,0.07-5.12,0.15-7.68,0.22c-1.56,0.18-3.13,0.35-4.7,0.53
	c-1.07,0.52-2.51,1.77-3.14,1.44c-6.93-3.62-14.42,0.74-21.63-1.92c-4.87-1.8-10.6-1.25-15.94-1.79
	c-25.43-2.56-49.73-9.64-73.49-18.66c-9.76-3.7-19.17-8.34-28.63-12.77c-2.9-1.36-5.63-3.26-8.13-5.3c-2.9-2.36-7.25-4.84-7.76-7.81
	c-0.82-4.78-0.02-10.44,1.88-14.97c6.35-15.11,13.46-29.9,20.37-44.77c5.26-11.31,10.55-22.6,16.04-33.8
	c3.02-6.15,7.96-8.97,14.82-7.32c5.76,1.38,11.47,3.84,16.57,6.87c5.52,3.28,6.51,7.9,4.69,14.37c-0.4,1.42-0.88,2.81-1.32,4.21
	c-0.22,0.69-0.44,1.37-0.65,2.06c-0.19,1.22-0.39,2.44-0.58,3.66c-0.01,2.48-0.03,4.97-0.04,7.45c0.12,1.2,0.23,2.4,0.35,3.61
	c0.29,0.74,0.57,1.48,0.86,2.22c5.3,25.52,26.76,36.47,48.08,38.5c0.66,0.13,1.33,0.27,1.99,0.4c1.2,0.09,2.41,0.18,3.61,0.27
	c3.11,0.3,6.23,0.61,9.34,0.91c1.19-0.01,2.37-0.01,3.56-0.02c2.69-0.33,5.38-0.66,8.07-0.99c0.87-0.05,1.74-0.11,2.62-0.16
	c0.8-0.15,1.59-0.3,2.39-0.44c12.67-1.87,23.05-8.34,33.36-15.53c8-5.57,13.47-12.69,17.46-21.18c4.8-10.22,6.38-20.71,3.67-32.1
	c-2.33-9.81-4.96-19.23-13.28-25.49c-7.48-5.63-15.3-10.42-24.57-13.51c-19.5-6.49-39.25-4.78-59.06-4.5c-1.5,0.28-3,0.56-4.5,0.84
	c-2.74,0.14-5.48,0.28-8.22,0.42c-0.74,0.09-1.48,0.18-2.22,0.27c-6.61,0.48-13.21,1.31-19.82,1.34
	c-7.66,0.03-12.44-5.15-12.71-12.93c-0.07-2.13-0.01-4.27-0.01-7.56c36.13-28.96,72.81-58.37,110.05-88.22
	c-2.36-0.22-4.12-0.52-5.88-0.52c-25.22-0.05-50.44,0.02-75.67-0.12c-7.58-0.04-14.63,1.57-20.83,5.87
	c-2.66,1.84-5.66,4.18-6.83,6.99c-5.68,13.61-17.58,12.44-28.84,5.95c-7.97-4.59-9.37-9.38-6.05-18.44
	c8.94-24.36,18.14-48.63,27.16-72.97c2.35-6.34,4.22-12.86,6.68-19.15c3.89-9.92,15.51-12.59,22.59-4.52
	c4.54,5.18,9.46,5.9,15.48,5.89c59.98-0.08,119.96-0.05,179.94-0.04c2.15,0,4.3,0.11,6.45,0.17c0.77,0.18,1.54,0.36,2.31,0.54
	c3.82,0.89,6.02,3.34,7.59,6.92c3.12,7.08,6.63,13.99,9.98,20.97c2.06,4.35,4.25,8.64,6.17,13.05c3.03,6.97,1.74,11.14-4.36,15.77
	c-2.38,1.81-4.53,3.9-6.79,5.87C2216.17,1733.05,2214.39,1734.42,2212.62,1735.78z M1979.68,1739.3c1.1,0.07,2.36,0.53,3.29,0.16
	c8.45-3.32,17.24-4.12,26.22-4.1c35.98,0.07,71.97,0.02,107.95,0.05c3.38,0,6.8-0.07,10.13,0.41c8.88,1.3,12.96,10.91,7.7,18.13
	c-1.42,1.95-3.38,3.57-5.29,5.09c-29.03,23.12-58.12,46.18-87.14,69.32c-4.7,3.74-9.17,7.76-14.9,12.64
	c10.08,0,18.53-0.03,26.98,0.01c18.32,0.08,36,3.17,52.7,11.05c35.93,16.95,49.56,50.94,40.57,87.12
	c-5.51,22.16-20.69,37.99-40.21,49.42c-25.41,14.87-52.86,16.96-81.08,11.47c-24.29-4.72-44.39-16.11-55.99-39.17
	c-2.64-5.24-4.54-10.84-7.22-17.34c-6.98,14.84-13.53,28.76-20.13,42.8c1.74,1.19,2.66,2.02,3.73,2.51
	c38.31,17.47,77.82,29.97,120.56,29.36c34.57-0.49,67.77-6.58,98.45-23.31c19.76-10.78,36.47-24.88,47.29-45.04
	c8.46-15.75,11.9-33.06,12.15-50.53c0.17-12.05-2.4-24.36-5.24-36.2c-5.1-21.23-18.54-36.13-37.83-46.2
	c-16.44-8.58-34.03-11.91-52.28-12.89c-4.6-0.24-9.34,0.06-13.75-0.98c-9.88-2.32-12.72-12.17-5.9-19.51
	c1.66-1.79,3.65-3.29,5.6-4.78c23.92-18.21,47.9-36.36,71.79-54.61c5.03-3.84,9.79-8.03,14.82-12.18
	c-3.28-7.16-6.18-13.48-9.06-19.76c-4.24,0-7.61,0-10.98,0c-53.21,0-106.41,0.05-159.62-0.05c-8.22-0.01-16.44-0.68-25.41-1.07
	c-2.31,6.14-4.95,12.95-7.46,19.81c-3.46,9.46-6.82,18.96-10.2,28.46c-0.16,0.21-0.35,0.41-0.46,0.64c-0.03,0.05,0.2,0.23,0.3,0.35
	C1979.73,1740.03,1979.7,1739.66,1979.68,1739.3z"/>
<path class="st3" d="M1173.67,1765.43c0.12,2.38,0.25,4.75,0.37,7.13c-0.06,5.62-0.11,11.24-0.17,16.87
	c-0.06,1.77-0.12,3.53-0.17,5.3c-0.17,1.26-0.35,2.53-0.52,3.79c-3.44,18.01-10.13,34.74-19.74,50.33
	c-11.48,18.63-25.57,34.92-42.87,48.4c-19.21,14.97-38.36,30.01-57.53,45.02c-1.28,0.94-2.56,1.88-5.09,3.74
	c19.64,0,37.56,0.07,55.47-0.04c5.45-0.04,10.89-0.59,16.34-0.9c15.51,1.59,26.97-5.07,35.21-17.72c3.55-5.46,8.14-8.26,14.49-6.9
	c5.58,1.19,11.27,2.54,16.41,4.92c5.89,2.72,7.37,8.23,4.58,14.94c-2.54,6.12-5.82,11.92-8.51,17.98
	c-10.57,23.82-20.98,47.72-31.58,71.53c-2.46,5.52-5.14,10.97-8.23,16.16c-4.42,7.42-14.42,8.81-20.4,2.63
	c-4.28-4.42-9.12-6.4-15.04-6.38c-20.28,0.07-40.55,0.16-60.82,0.24c-1.83-0.12-3.66-0.35-5.48-0.34
	c-64.64,0.11-129.27,0.25-193.91,0.38c-11.59-3.08-14.52-11.44-6.33-19.59c5.65-5.62,12.12-10.46,18.48-15.31
	c16.45-12.52,33.1-24.78,49.56-37.28c9.77-7.42,20.09-14.35,28.84-22.85c15.32-14.88,29.37-31.06,44.43-46.22
	c12.02-12.09,20.55-26.73,30.53-40.26c5.94-8.05,9.87-17.78,13.65-27.18c3.82-9.5,6.34-19.52,9.43-29.31
	c0.28-0.77,0.57-1.54,0.85-2.32c0.06-1.2,0.13-2.4,0.19-3.6c0.11-1.26,0.21-2.51,0.32-3.77c0.03-3.67,0.07-7.34,0.1-11.01
	c-0.12-1.25-0.23-2.51-0.35-3.76c-0.07-1.2-0.13-2.39-0.2-3.59c-0.3-0.79-0.6-1.57-0.89-2.36c-1.65-10.7-8.27-18.12-15.7-25.41
	c-5.64-5.54-13.16-6-19.58-9.27c-0.66-0.14-1.32-0.29-1.98-0.43c-1.19-0.12-2.39-0.24-3.58-0.36c-2.51-0.26-5.02-0.52-7.53-0.78
	l-0.84-0.1c0,0-0.83,0.17-0.83,0.17c-2.09,0.31-4.18,0.61-6.27,0.92c-0.87,0.06-1.74,0.12-2.61,0.18c-0.77,0.16-1.54,0.31-2.32,0.47
	c-14.59,2.26-27.22,8.28-39.09,17.33c-13.51,10.29-17.57,23.9-18.4,39.53c-0.26,0.79-0.52,1.58-0.78,2.37
	c-0.16,3-0.32,5.99-0.48,8.99c-0.52,0.41-0.77,0.94-0.75,1.6c-4.06,6.76-11.45,7.45-17.93,9.79c-0.69,0.18-1.38,0.36-2.07,0.54
	c-2.37-0.01-4.75-0.02-7.12-0.04c-0.68-0.21-1.36-0.42-2.04-0.63c-7.54-0.87-6.88-8.08-8.36-12.48
	c-4.29-12.77-7.16-26.02-10.52-39.1c-3.51-13.65-7.16-27.26-10.29-41c-0.86-3.78-0.61-8.06,0.22-11.87c0.49-2.26,2.7-5.11,4.81-5.9
	c26.42-9.95,51.63-23.1,79.22-29.92c14.8-3.66,29.64-6.9,44.97-7.58c9.14-0.4,18.26-1.4,27.38-2.12c2.47,0,4.94,0,7.41,0
	c14.26,1.33,28.6,2.08,42.75,4.14c24.14,3.51,46.98,11.35,67.48,24.72c14.95,9.74,27.01,22.39,34.79,38.89
	c4.04,8.58,6.32,17.54,8.34,26.67C1173.48,1764.07,1173.57,1764.75,1173.67,1765.43z M1150.74,1964.31
	c-16.92,5.82-34.46,5.02-51.95,5.05c-24.6,0.04-49.21,0.35-73.81,0.54c-3.69,0.03-7.39,0.22-11.07-0.01
	c-7.38-0.46-11.72-3.48-13.27-9.26c-1.59-5.93,1.55-9.97,5.9-13.35c7.27-5.64,14.62-11.17,21.84-16.87
	c26.26-20.71,53.08-40.77,78.5-62.46c18.18-15.51,30.77-35.48,37.9-58.73c6.13-20,7.37-39.82-1.19-59.21
	c-3.41-7.73-7.88-15.52-13.66-21.57c-10.94-11.45-24.87-18.92-39.81-24.16c-33.1-11.61-67.2-13.41-101.85-10.28
	c-30.33,2.75-58.81,11.85-86.49,24.02c-6.12,2.69-12.32,5.21-19.38,8.19c4.74,15.27,6.11,30.92,12.12,44.46
	c5.31-8.11,9.37-17.05,15.8-23.68c22.56-23.28,50.48-34.04,83.01-32.5c33.47,1.59,61.22,22.74,66.22,55.51
	c1.96,12.84,1.12,26.35-0.18,39.39c-2.2,22.14-13.09,41.3-23.32,60.54c-1.59,2.98-3.24,5.95-5.19,8.7
	c-13.81,19.55-28.19,38.63-45.32,55.47c-10.73,10.55-20.82,21.87-32.35,31.46c-20.74,17.25-42.35,33.45-63.56,50.13
	c-0.74,0.58-1.11,1.63-2.24,3.37c4.5,0,7.86,0.01,11.21,0c58.13-0.17,116.26-0.48,174.4-0.45c17.74,0.01,35.56-1.8,53.18,2.04
	c1.46-2.15,2.96-3.78,3.8-5.69c7.31-16.53,14.5-33.11,21.71-49.68c0.1-0.69,0.19-1.38,0.29-2.06
	C1151.57,1963.6,1151.16,1963.95,1150.74,1964.31z"/>
<path class="st3" d="M1838.44,1944.99c2.09-0.03,4.19-0.07,6.28-0.11c0.81-0.16,1.61-0.32,2.42-0.48
	c9.61-2.19,17.21-7.21,22.77-15.48c6.12-9.12,9.11-10.04,19.88-7.22c2.33,0.61,4.74,0.91,7.02,1.66c9.09,2.97,11.91,8.36,8.71,17.49
	c-1.91,5.43-4.53,10.61-6.89,15.88c-7.91,17.66-15.8,35.33-23.78,52.96c-5.1,11.26-10.28,22.48-15.53,33.67
	c-1.67,3.57-3.74,6.43-7.88,8.26c-5.33,2.35-8.97,1.32-12.62-2.56c-4.29-4.58-9.63-6.86-15.93-6.83
	c-20.87,0.08-41.74,0.17-62.61,0.25c-1.52-0.12-3.04-0.35-4.56-0.34c-64.33,0.12-128.66,0.27-192.99,0.41
	c-9.98-3.22-11.27-5.34-10.76-14.71c0.2-3.63,2.12-5.65,4.51-7.43c10.87-8.09,21.79-16.1,32.8-23.99
	c10.55-7.57,21.33-14.83,31.81-22.49c4.6-3.36,8.77-7.3,13.04-11.08c5.45-4.81,10.84-9.69,16.19-14.6
	c8.6-7.88,17.7-15.32,25.61-23.85c12-12.93,22.89-26.88,34.78-39.92c11.4-12.5,18.95-27.4,26.93-41.95
	c6.4-11.67,10.44-24.43,11.64-37.9c0.45-5.06,0.85-10.16,1.88-15.11c1.89-9.05-1.37-17.42-4.14-25.38
	c-4.17-12.01-14.41-18.58-26.07-22.83c-1.66-0.61-3.32-1.19-4.98-1.79c-0.74-0.13-1.48-0.25-2.23-0.38c-0.9-0.1-1.8-0.19-2.7-0.29
	c-2.69-0.33-5.38-0.65-8.08-0.98l-0.84-0.11c0,0-0.83,0.16-0.83,0.16c-2.7,0.31-5.4,0.62-8.1,0.94
	c-16.51,1.31-30.93,8.1-43.55,18.23c-11.93,9.58-17.35,23.01-18.66,38.1c-0.24,2.74-0.05,5.51-0.25,8.26
	c-0.54,7.44-4.5,11.82-12.05,13.63c-2.63,0.63-5.22,1.43-7.82,2.15c-0.69,0.21-1.39,0.42-2.08,0.63c-1.77-0.06-3.53-0.11-5.3-0.17
	c-0.69-0.22-1.37-0.43-2.06-0.65c-5.55-1.91-7.97-5.46-9.27-11.59c-3.58-16.95-8.44-33.63-12.71-50.44
	c-0.37-1.44-0.07-3.04-0.08-4.57c-0.64-1.83-1.28-3.66-1.92-5.49c-0.14-0.6-0.32-1.19-0.54-1.76c-0.31-0.79-0.62-1.58-0.93-2.36
	c-3.95-6.69-3.05-14.44-4.68-21.63c0-1.33,0-2.65,0-3.98c0.45-5.6,4.53-8.49,8.9-10.31c16.22-6.75,32.61-13.08,48.93-19.56
	c2.6-1.01,5.2-2.03,7.8-3.04c18.17-4.32,36.2-9.34,54.55-12.7c11.62-2.13,23.7-1.79,35.57-2.55c3.08-0.01,6.17-0.02,9.25-0.03
	c22.17,0.97,44.12,3.18,65.59,9.36c18.53,5.33,36.19,12.59,51.32,24.57c18.76,14.84,31.61,33.63,34.49,58.13
	c0.53,4.52,1.31,9,1.98,13.5c-0.03,4.3-0.06,8.61-0.08,12.91c-2.13,17.55-5.47,34.97-14.02,50.5
	c-6.42,11.65-14.55,22.46-22.73,33.01c-16.89,21.78-39.89,36.64-61.54,53.02c-8.48,6.42-16.53,13.39-24.78,20.11
	c-0.27,0.14-0.61,0.23-0.8,0.44c-0.17,0.19-0.19,0.52-0.28,0.79c2.26,0.35,4.53,1,6.79,0.99c19.05-0.07,38.1-0.23,57.14-0.46
	C1832.4,1945.83,1835.42,1945.3,1838.44,1944.99z M1609.93,1773c2.59-5.63,3.98-9.38,5.97-12.79c2-3.42,4.47-6.6,6.95-9.7
	c22.97-28.72,68.81-43.3,104.18-33.07c17.85,5.16,32.3,14.98,40.87,31.92c5.85,11.57,9.69,23.66,9.48,37.01
	c-0.18,11.12-1.54,21.85-4.24,32.67c-6.8,27.34-20.29,51.33-36.58,73.76c-16.08,22.12-34.53,42.36-54.82,60.71
	c-15.46,13.98-31.56,27.25-47.66,40.49c-9.83,8.09-20.2,15.53-30.33,23.26c0.13,0.61,0.26,1.22,0.39,1.82c3.21,0,6.41,0.01,9.62,0
	c50.75-0.15,101.51-0.53,152.26-0.37c25.43,0.08,50.92-1.9,76.87,1.63c7.64-19.03,18.26-36.81,24.86-57.64
	c-11.34,5.55-22.03,6.53-32.84,6.61c-32.91,0.26-65.82,0.43-98.73,0.63c-2.15,0.01-4.31,0.08-6.46,0
	c-6.04-0.22-10.79-2.52-12.79-8.63c-1.92-5.86,0.84-10.18,5.18-13.64c5.76-4.59,11.73-8.92,17.54-13.44
	c24.47-19,49.08-37.83,73.33-57.11c18.54-14.74,32.91-33.18,42.84-54.56c8-17.22,10.54-35.59,8.33-54.81
	c-2.55-22.21-13.97-38.25-31.93-50.21c-23.68-15.77-50.58-21.84-78.36-24.06c-40.35-3.23-79.72,1.79-117.54,16.79
	c-12.46,4.94-24.74,10.37-37.64,15.8C1602.41,1741.61,1605.95,1756.41,1609.93,1773z"/>
<path class="st0" d="M2821.78,1106.29c-105.18,0.16-210.35,0.33-315.53,0.51c-2.45,0-4.9,0.22-7.36,0.34
	c-3.35-0.23-6.7-0.66-10.05-0.66c-135.22,0.26-270.45,0.56-405.67,0.9c-3.01,0.01-6.03,0.56-9.04,0.86
	c-3.09,0.03-6.18,0.07-9.28,0.1c-1.21-0.69-2.42-1.38-3.62-2.07l0.01,0.02c-0.69-1.21-1.38-2.41-2.07-3.62
	c-0.3-1.17-0.6-2.34-0.9-3.52c-0.24-1.3-0.48-2.61-0.72-3.91c-0.31-2.39-0.62-4.79-0.93-7.18c-0.27-1.3-0.55-2.61-0.82-3.91
	c-4.07-21.42-2.7-42.77,0.19-64.21c0.45-3.3,1.81-5.37,3.34-7.77c3.68-0.11,7.36-0.3,11.04-0.31
	c108.07-0.24,216.14-0.46,324.21-0.73c3.32-0.01,6.65-0.53,9.97-0.82c17.5,0.07,34.99,0.23,52.49,0.21
	c118.22-0.17,236.44-0.38,354.66-0.56c4.6-0.01,9.21,0.11,13.81,0.17c9.24,3.77,11.94,10.81,11.64,20.44
	c-0.53,17.09,0.03,34.2-0.26,51.3c-0.1,5.71-1.41,11.4-2.16,17.1c-0.6,0.68-1.19,1.35-1.79,2.03c-1.52,1-3.05,1.99-4.57,2.99
	c-0.91,0.4-1.83,0.8-2.74,1.2C2824.36,1105.55,2823.07,1105.92,2821.78,1106.29z M2083.82,1037.38c-3.72,10.62-3.5,20.71-2.54,30.76
	c1.26,13.15,2.08,13.7,15.18,13.66c110.11-0.27,220.23-0.6,330.34-0.83c123.65-0.26,247.3-0.44,370.95-0.66
	c3.57-0.01,7.14-0.19,10.82-0.3c0-15.1,0-29.09,0-44.15C2566.64,1036.37,2325.34,1036.87,2083.82,1037.38z"/>
<path class="st4" d="M865.04,1844.23c2.21,1.5,4.41,3,6.62,4.51c4.01,5.45,4.69,11.62,4.62,18.22c-0.22,20.22-0.29,40.44,0.03,60.66
	c0.11,7.03-1.03,13.27-5.61,18.7c-1.26,0.77-2.53,1.54-3.79,2.31c-1.27,0.44-2.54,0.88-3.8,1.31
	c-60.51,0.08-121.03,0.22-181.54,0.24c-128.1,0.04-256.2,0.02-384.3,0c-4.6,0-9.21-0.25-13.81-0.39c-1.25-0.56-2.49-1.13-3.74-1.69
	c-2.02-2.43-4.04-4.87-6.06-7.3c-0.43-1.27-0.85-2.55-1.28-3.82c-0.08-27.09-0.15-54.17-0.23-81.26
	c2.29-6.43,6.58-10.81,13.12-12.92c42.39,0.12,84.78,0.32,127.17,0.33c144.7,0.04,289.4,0.01,434.1-0.01c3.06,0,6.13-0.21,9.19-0.33
	C858.83,1843.27,861.94,1843.75,865.04,1844.23z M299.76,1923.07c12.14,2,541.75,1.47,548.41-0.47c0-17.35,0-34.77,0-52.84
	c-182.96,0-365.43,0-548.41,0C299.76,1887.76,299.76,1905.19,299.76,1923.07z"/>
<path class="st5" d="M2280.79,1937.65c-6.29-2.42-9.68-7.29-11.49-13.51c0.08-22.31,0.02-44.62,0.32-66.93
	c0.07-5.42,1.31-10.82,2.01-16.23c1.25-1.21,2.49-2.43,3.74-3.64c1.24-0.59,2.47-1.18,3.71-1.77c7.69-0.08,15.38-0.24,23.06-0.24
	c176.91-0.01,353.81,0,530.72,0.02c4.92,0,9.84,0.12,14.76,0.19c1.26,0.41,2.53,0.82,3.8,1.23c2.65,2.61,5.31,5.21,7.96,7.82
	c0.36,1.27,0.73,2.55,1.09,3.82c-0.05,25.2-0.09,50.4-0.14,75.59c-0.38,1.28-0.75,2.55-1.13,3.83c-0.36,0.83-0.72,1.67-1.09,2.5
	c-5.34,6.05-12.26,7.43-19.99,7.4c-35.68-0.13-71.36-0.03-107.04-0.03C2580.98,1937.69,2430.89,1937.67,2280.79,1937.65z
	 M2832.64,1862.41c-13.02-1.87-528.97-1.33-535.48,0.4c-1.68,10.43-1.24,41.78,0.67,48.19c12.03,1.78,527.67,1.2,534.81-0.73
	C2832.64,1894.56,2832.64,1878.71,2832.64,1862.41z"/>
<path class="st4" d="M636.03,1014.04c15.96,0.08,31.93,0.23,47.89,0.23c26.42,0,52.83-0.1,79.25-0.16c2.97-0.01,5.95,0,10.54,0
	c-6.65,14.16-9.86,27.83-18.24,39.93c-12.23,17.66-27.24,32.22-43.44,45.93c-7.12,6.03-14.11,11.66-24.13,11.08
	c-3.04-0.24-6.07-0.69-9.11-0.69c-102.31,0.18-204.62,0.4-306.93,0.66c-3.02,0.01-6.04,0.53-9.06,0.81
	c-25.63-0.07-51.25-0.17-76.88-0.2c-10.68-0.01-21.36,0.12-32.03,0.19c-4.75-2.74-9.49-5.48-14.24-8.22c-0.4-0.89-0.8-1.78-1.2-2.67
	c-0.43-1.89-0.86-3.77-1.29-5.66c0.05-23.39,0.09-46.77,0.14-70.16c0.55-1.25,1.11-2.5,1.66-3.74c3.08-2.04,6.17-4.09,9.25-6.13
	c5.52,0.14,11.04,0.4,16.56,0.39c120.73-0.22,241.47-0.47,362.2-0.76C630,1014.85,633.01,1014.32,636.03,1014.04z M727.18,1041.18
	c-14.73-2.11-455.47-0.22-462.29,2.05c0,6.81-0.17,13.85,0.05,20.89c0.21,6.91-1.06,13.96,1.28,21.55c3.91,0,7.55,0.01,11.19,0
	c130.44-0.32,260.88-0.63,391.32-0.95c25.98-0.06,26.26-0.14,42.89-20.04C717.5,1057.65,723.71,1050.8,727.18,1041.18z"/>
<path class="st3" d="M1200.14,1833.46c0.11-1.76,0.22-3.52,0.33-5.28c0.15-1.28,0.3-2.55,0.45-3.83
	c0.81-20.49,8.37-39.14,15.73-57.84c2.19-5.58,4.06-11.38,7.02-16.53c3.88-6.74,8.79-12.88,13.09-19.39
	c11.62-17.58,26.07-32.74,43.16-44.67c21.31-14.88,45.2-24.21,71.58-25.86c8.84-0.55,17.71-2.09,26.49-1.68
	c31.68,1.48,62,8.44,88.84,26.2c17.71,11.72,32.55,26.44,45.27,43.69c14.92,20.22,24.39,42.63,30.82,66.55
	c2.27,8.46,3.45,17.22,5.12,25.85c0.15,1.25,0.29,2.5,0.44,3.75c0.07,1.82,0.13,3.63,0.2,5.45c0.29,1.33,0.59,2.67,0.88,4
	c0.01,12.11,0.02,24.22,0.03,36.34c-0.28,1.39-0.56,2.77-0.84,4.16c-0.14,2.37-0.29,4.73-0.43,7.1c-0.1,0.68-0.2,1.35-0.31,2.03
	c-2.05,10.1-3.24,20.48-6.33,30.25c-6.95,22.01-16.35,42.94-30.88,61.22c-14.75,18.55-31.62,34.59-52.33,46.51
	c-17.73,10.2-36.52,16.78-56.87,18.92c-5.99,0.63-11.97,1.38-17.95,2.07c-6.76,0.01-13.53,0.01-20.29,0.02
	c-21.46,0.68-41.95-4.88-61.59-12.18c-12.01-4.46-23.72-10.78-33.85-19.86c-5.9-5.29-12.08-10.43-17.8-16
	c-9.14-8.9-16-19.47-23.28-29.92c-10.11-14.52-14.53-30.83-20.23-46.93c-3.31-9.34-5.54-18.72-5.71-28.6
	c-0.16-1.25-0.31-2.49-0.47-3.74c-0.09-1.82-0.18-3.65-0.28-5.47c-0.3-1.31-0.6-2.61-0.9-3.92c-0.12-4.24-0.24-8.49-0.36-12.73
	c-0.01-4.29-0.02-8.58-0.04-12.88c0.13-4.23,0.26-8.46,0.4-12.69C1199.56,1836.2,1199.85,1834.83,1200.14,1833.46z M1524.43,1837.91
	c-0.04-10.24-1.97-24.69-6.14-38.95c-5.18-17.72-11.28-34.8-21.63-50.41c-20.71-31.24-48.22-52.95-84.83-61.83
	c-28.55-6.93-57.12-6.86-85.31,2.96c-26.78,9.33-47.32,26.9-64.39,48.74c-21.3,27.26-32.39,58.93-36.97,92.86
	c-2.93,21.66-1.6,43.16,2.71,64.83c5.13,25.84,14.73,49.26,30.52,70.17c11.62,15.39,25.87,28.1,43.1,36.69
	c34.28,17.08,70.55,20.12,107.66,12.1c43.72-9.46,74.54-36.56,95.3-74.83C1520.86,1910.01,1526.94,1876.89,1524.43,1837.91z"/>
<path class="st6" d="M2052.03,1979.23c-3.11-0.3-6.23-0.61-9.34-0.91C2045.81,1978.63,2048.92,1978.93,2052.03,1979.23z"/>
<path class="st7" d="M235.16,1383.26c0.13,1.88,0.25,3.76,0.38,5.63C235.42,1387.02,235.29,1385.14,235.16,1383.26z"/>
<path class="st8" d="M2049.76,1119.9c-0.85-1.5-1.69-3-2.54-4.5C2048.07,1116.9,2048.91,1118.4,2049.76,1119.9z"/>
<path class="st7" d="M2065.02,1135.36c-1.57-0.87-3.13-1.74-4.7-2.62C2061.89,1133.62,2063.46,1134.49,2065.02,1135.36z"/>
<path class="st9" d="M2051.73,1263.08c1.27-1.25,2.55-2.49,3.82-3.74C2054.28,1260.59,2053.01,1261.83,2051.73,1263.08z"/>
<path class="st7" d="M235.48,1390.51c0.87,1.34,1.73,2.67,2.6,4.01C237.21,1393.18,236.35,1391.84,235.48,1390.51z"/>
<path class="st6" d="M986.72,1737.83c2.51,0.26,5.02,0.52,7.53,0.78C991.74,1738.36,989.23,1738.1,986.72,1737.83z"/>
<path class="st6" d="M1693.22,1738.82c2.7-0.31,5.4-0.62,8.1-0.94C1698.62,1738.2,1695.92,1738.51,1693.22,1738.82z"/>
<path class="st6" d="M1702.99,1737.84c2.69,0.33,5.38,0.66,8.08,0.98C1708.37,1738.49,1705.68,1738.17,1702.99,1737.84z"/>
<path class="st8" d="M2793.85,1763.92c-1.1-1.39-2.19-2.79-3.29-4.18C2791.66,1761.13,2792.75,1762.52,2793.85,1763.92z"/>
<path class="st10" d="M705.36,1768.45c1.56-0.85,3.11-1.69,4.67-2.54C708.47,1766.76,706.92,1767.61,705.36,1768.45z"/>
<path class="st7" d="M2437.83,1298.23c1.28,1.22,2.56,2.45,3.84,3.67C2440.39,1300.67,2439.11,1299.45,2437.83,1298.23z"/>
<path class="st10" d="M1987.8,1933.32c0.01-2.48,0.03-4.97,0.04-7.45C1987.83,1928.35,1987.81,1930.84,1987.8,1933.32z"/>
<path class="st9" d="M2419.25,1276.33c1.27,1.16,2.54,2.33,3.81,3.49C2421.8,1278.66,2420.52,1277.49,2419.25,1276.33z"/>
<path class="st6" d="M2063.66,1978.23c-2.69,0.33-5.38,0.66-8.07,0.99C2058.29,1978.89,2060.97,1978.56,2063.66,1978.23z"/>
<path class="st11" d="M757.99,1074.99c-1.26,1.24-2.51,2.49-3.77,3.73C755.48,1077.48,756.73,1076.24,757.99,1074.99z"/>
<path class="st6" d="M978.77,1738.82c2.09-0.31,4.18-0.61,6.27-0.92C982.95,1738.21,980.86,1738.51,978.77,1738.82z"/>
<path class="st10" d="M2074.74,2042.38c1.57-0.18,3.13-0.35,4.7-0.53C2077.87,2042.03,2076.3,2042.21,2074.74,2042.38z"/>
<path class="st6" d="M1577.46,1746.91c0.64,1.83,1.28,3.66,1.92,5.49C1578.74,1750.57,1578.1,1748.74,1577.46,1746.91z"/>
<path class="st10" d="M1998.61,1340.17c-0.99-0.83-1.97-1.65-2.96-2.48C1996.63,1338.51,1997.62,1339.34,1998.61,1340.17z"/>
<path class="st10" d="M737.32,1750.4c1.24-0.73,2.47-1.46,3.71-2.18C739.79,1748.94,738.56,1749.67,737.32,1750.4z"/>
<path class="st10" d="M2313.95,1533.01c-0.39-1.34-0.79-2.68-1.18-4.03C2313.17,1530.33,2313.56,1531.67,2313.95,1533.01z"/>
<path class="st6" d="M1571.31,1717.17c0,1.33,0,2.65,0,3.98C1571.31,1719.83,1571.31,1718.5,1571.31,1717.17z"/>
<path class="st10" d="M1036.17,1780.03c0.12,1.25,0.23,2.51,0.35,3.76C1036.4,1782.54,1036.29,1781.29,1036.17,1780.03z"/>
<path class="st12" d="M1939.54,1591.86c1.12-0.36,2.24-0.72,3.35-1.08C1941.78,1591.14,1940.66,1591.5,1939.54,1591.86z"/>
<path class="st8" d="M2030.07,1373.36c-0.82-0.96-1.64-1.93-2.46-2.89C2028.43,1371.43,2029.25,1372.39,2030.07,1373.36z"/>
<path class="st9" d="M1548.5,1824.43c-0.15-1.25-0.29-2.5-0.44-3.75C1548.21,1821.93,1548.35,1823.18,1548.5,1824.43z"/>
<path class="st6" d="M1200.92,1824.36c-0.15,1.28-0.3,2.55-0.45,3.83C1200.62,1826.91,1200.77,1825.63,1200.92,1824.36z"/>
<path class="st9" d="M1549.58,1833.87c-0.29-1.33-0.59-2.67-0.88-4C1548.99,1831.21,1549.29,1832.54,1549.58,1833.87z"/>
<path class="st10" d="M1036.42,1794.81c-0.11,1.26-0.21,2.51-0.32,3.77C1036.21,1797.32,1036.32,1796.07,1036.42,1794.81z"/>
<path class="st6" d="M1173.18,1798.52c0.17-1.26,0.35-2.53,0.52-3.79C1173.52,1795.99,1173.35,1797.25,1173.18,1798.52z"/>
<path class="st6" d="M1200.14,1833.46c-0.29,1.37-0.58,2.73-0.87,4.1C1199.56,1836.2,1199.85,1834.83,1200.14,1833.46z"/>
<path class="st9" d="M1199.27,1875.86c0.3,1.31,0.6,2.61,0.9,3.92C1199.87,1878.47,1199.57,1877.16,1199.27,1875.86z"/>
<path class="st6" d="M2021.75,1866.14c1.5-0.28,3-0.56,4.5-0.84C2024.75,1865.58,2023.25,1865.86,2021.75,1866.14z"/>
<path class="st6" d="M1548.77,1874.37c0.28-1.39,0.56-2.77,0.84-4.16C1549.33,1871.59,1549.05,1872.98,1548.77,1874.37z"/>
<path class="st9" d="M1200.45,1885.25c0.16,1.25,0.31,2.49,0.47,3.74C1200.76,1887.74,1200.61,1886.49,1200.45,1885.25z"/>
<path class="st9" d="M2005.85,1346.21c-0.62-0.59-1.23-1.18-1.85-1.78C2004.62,1345.03,2005.24,1345.62,2005.85,1346.21z"/>
<path class="st10" d="M1035.08,1774.08c0.3,0.79,0.6,1.57,0.89,2.36C1035.68,1775.66,1035.38,1774.87,1035.08,1774.08z"/>
<path class="st12" d="M1925.71,1597.05c0.84-0.32,1.67-0.64,2.51-0.96C1927.39,1596.4,1926.55,1596.72,1925.71,1597.05z"/>
<path class="st12" d="M1935.49,1593.56c0.64-0.33,1.29-0.66,1.93-0.98C1936.78,1592.91,1936.13,1593.24,1935.49,1593.56z"/>
<path class="st13" d="M839.44,1671.27c0.51-0.5,1.02-1,1.53-1.49C840.46,1670.27,839.95,1670.77,839.44,1671.27z"/>
<path class="st14" d="M806.25,1685.97c0.47-0.64,0.95-1.28,1.42-1.93C807.2,1684.68,806.73,1685.33,806.25,1685.97z"/>
<path class="st10" d="M639.68,1795.14c0.56-0.23,1.13-0.46,1.69-0.69C640.81,1794.69,640.24,1794.92,639.68,1795.14z"/>
<path class="st6" d="M915.57,1798.7c0.26-0.79,0.52-1.58,0.78-2.37C916.09,1797.12,915.83,1797.91,915.57,1798.7z"/>
<path class="st14" d="M826.83,1647.18c0.37-0.68,0.74-1.37,1.1-2.05C827.57,1645.82,827.2,1646.5,826.83,1647.18z"/>
<path class="st10" d="M1035.91,1802.18c-0.28,0.77-0.57,1.54-0.85,2.32C1035.34,1803.72,1035.63,1802.95,1035.91,1802.18z"/>
<path class="st11" d="M2098.13,1233.96c0.61-0.16,1.22-0.32,1.83-0.47C2099.34,1233.64,2098.73,1233.8,2098.13,1233.96z"/>
<path class="st10" d="M2328.82,1226.85c0.76,0.36,1.51,0.72,2.27,1.08C2330.33,1227.57,2329.57,1227.21,2328.82,1226.85z"/>
<path class="st6" d="M914.35,1809.29c-0.02-0.66,0.23-1.2,0.75-1.6c0.03,0.49,0.09,0.99,0.06,1.48
	C915.15,1809.23,914.63,1809.25,914.35,1809.29z"/>
<path class="st12" d="M1254.38,1144.32c-0.64-0.34-1.28-0.68-1.91-1.02C1253.11,1143.64,1253.75,1143.98,1254.38,1144.32z"/>
<path class="st6" d="M2249.95,1881.73c-0.08-0.69-0.17-1.39-0.25-2.08C2249.78,1880.34,2249.86,1881.04,2249.95,1881.73z"/>
<path class="st6" d="M1548.04,1883.49c0.1-0.68,0.2-1.35,0.31-2.03c0.14,0.5,0.35,1.01,0.39,1.52
	C1548.75,1883.14,1548.28,1883.32,1548.04,1883.49z"/>
<path class="st15" d="M1726.59,1138.19c-1.07,0.46-2.15,0.92-3.22,1.39C1724.44,1139.11,1725.52,1138.65,1726.59,1138.19z"/>
<path class="st6" d="M1608.8,1819.82c0.69-0.21,1.39-0.42,2.08-0.63C1610.19,1819.4,1609.49,1819.61,1608.8,1819.82z"/>
<path class="st10" d="M1988.42,1922.21c0.22-0.69,0.44-1.37,0.65-2.06C1988.86,1920.84,1988.64,1921.52,1988.42,1922.21z"/>
<path class="st6" d="M997.83,1738.97c0.66,0.14,1.32,0.29,1.98,0.43C999.15,1739.26,998.49,1739.12,997.83,1738.97z"/>
<path class="st8" d="M2031.64,1375.87c-0.43-0.68-0.86-1.36-1.28-2.04C2030.78,1374.52,2031.21,1375.19,2031.64,1375.87z"/>
<path class="st10" d="M1989.01,1939.15c-0.29-0.74-0.57-1.48-0.86-2.22C1988.44,1937.67,1988.72,1938.41,1989.01,1939.15z"/>
<path class="st6" d="M1713.77,1739.11c0.74,0.13,1.48,0.25,2.23,0.38C1715.25,1739.36,1714.51,1739.23,1713.77,1739.11z"/>
<path class="st6" d="M1847.14,1944.4c-0.81,0.16-1.61,0.32-2.42,0.48C1845.53,1944.72,1846.34,1944.56,1847.14,1944.4z"/>
<path class="st12" d="M1257.96,1145.72c-0.43-0.24-0.86-0.48-1.29-0.72C1257.21,1145.03,1257.65,1145.27,1257.96,1145.72z"/>
<path class="st6" d="M1601.44,1819.01c0.69,0.22,1.37,0.43,2.06,0.65C1602.82,1819.44,1602.13,1819.22,1601.44,1819.01z"/>
<path class="st6" d="M2039.08,1978.05c-0.66-0.13-1.33-0.27-1.99-0.4C2037.75,1977.78,2038.42,1977.91,2039.08,1978.05z"/>
<path class="st15" d="M1734.39,1135.43c-0.6,0.18-1.2,0.36-1.8,0.54C1733.19,1135.79,1733.79,1135.61,1734.39,1135.43z"/>
<path class="st6" d="M894.35,1819.62c0.69-0.18,1.38-0.36,2.07-0.54C895.73,1819.26,895.04,1819.44,894.35,1819.62z"/>
<path class="st6" d="M2068.67,1977.62c-0.8,0.15-1.59,0.3-2.39,0.44C2067.08,1977.92,2067.88,1977.77,2068.67,1977.62z"/>
<path class="st15" d="M1749.84,1130.56c-0.8,0.36-1.6,0.71-2.4,1.07C1748.24,1131.27,1749.04,1130.92,1749.84,1130.56z"/>
<path class="st15" d="M1757.47,1128.75c-0.89,0.4-1.77,0.8-2.66,1.2C1755.7,1129.55,1756.58,1129.15,1757.47,1128.75z"/>
<path class="st16" d="M2205.34,1669.11c-0.77-0.18-1.54-0.36-2.31-0.54C2203.8,1668.76,2204.57,1668.93,2205.34,1669.11z"/>
<path class="st6" d="M885.19,1818.95c0.68,0.21,1.36,0.42,2.04,0.63C886.55,1819.37,885.87,1819.16,885.19,1818.95z"/>
<path class="st6" d="M973.84,1739.47c0.77-0.16,1.54-0.31,2.32-0.47C975.38,1739.15,974.61,1739.31,973.84,1739.47z"/>
<path class="st6" d="M2011.31,1866.83c0.74-0.09,1.48-0.18,2.22-0.27C2012.79,1866.65,2012.05,1866.74,2011.31,1866.83z"/>
<path class="st10" d="M725.49,1757.16c0.91-0.49,1.83-0.98,2.74-1.47C727.32,1756.18,726.4,1756.67,725.49,1757.16z"/>
<path class="st9" d="M2007.72,1347.99c-0.61-0.58-1.21-1.16-1.82-1.74C2006.51,1346.84,2007.11,1347.42,2007.72,1347.99z"/>
<path class="st10" d="M721.11,1759.86c0.59-0.51,1.18-1.02,1.77-1.53C722.29,1758.84,721.7,1759.35,721.11,1759.86z"/>
<path class="st14" d="M807.67,1684.05c0.5-0.86,1-1.72,1.51-2.58C808.67,1682.33,808.17,1683.19,807.67,1684.05z"/>
<path class="st6" d="M1173.67,1765.43c-0.1-0.68-0.19-1.37-0.29-2.05C1173.48,1764.07,1173.57,1764.75,1173.67,1765.43z"/>
<path class="st6" d="M1575.99,1742.79c0.31,0.79,0.62,1.58,0.93,2.36C1576.61,1744.36,1576.3,1743.58,1575.99,1742.79z"/>
<path class="st8" d="M283.55,1597.3c1.21,1.19,2.43,2.38,3.64,3.57C285.98,1599.68,284.76,1598.49,283.55,1597.3z"/>
<path class="st14" d="M519.74,1680.65c1.53-0.54,3.06-1.08,4.6-1.62C522.81,1679.58,521.27,1680.12,519.74,1680.65z"/>
<path class="st10" d="M363.8,1658.88c1.38,0.69,2.76,1.39,4.14,2.08C366.56,1660.26,365.18,1659.57,363.8,1658.88z"/>
<path class="st14" d="M829.04,1506.72c0.35,0.65,0.7,1.31,1.05,1.96C829.74,1508.03,829.39,1507.38,829.04,1506.72z"/>
<path class="st17" d="M567.95,1636.72c0.57-1.45,1.14-2.89,1.71-4.34C569.09,1633.83,568.52,1635.28,567.95,1636.72z"/>
<path class="st10" d="M387.51,1670.32c1.08,0.48,2.17,0.96,3.25,1.44C389.67,1671.28,388.59,1670.8,387.51,1670.32z"/>
<path class="st17" d="M569.58,1613.95c-0.56-1.4-1.11-2.81-1.67-4.21C568.47,1611.14,569.03,1612.54,569.58,1613.95z"/>
<path class="st9" d="M296.54,1477.23c-0.69-0.56-1.37-1.12-2.06-1.69C295.17,1476.11,295.86,1476.67,296.54,1477.23z"/>
<path class="st17" d="M556.68,1658.19c0.4-0.56,0.81-1.11,1.21-1.67C557.49,1657.07,557.09,1657.63,556.68,1658.19z"/>
<path class="st14" d="M824.92,1495.79c0.39,0.68,0.78,1.37,1.17,2.05C825.7,1497.16,825.31,1496.48,824.92,1495.79z"/>
<path class="st14" d="M827.04,1501.36c0.33,0.62,0.65,1.23,0.98,1.85C827.69,1502.59,827.37,1501.97,827.04,1501.36z"/>
<path class="st10" d="M353.95,1652.53c0.52,0.36,1.04,0.71,1.57,1.07C355,1653.25,354.48,1652.89,353.95,1652.53z"/>
<path class="st17" d="M564.17,1647.53c0.42-0.71,0.84-1.42,1.25-2.13C565.01,1646.11,564.59,1646.82,564.17,1647.53z"/>
<path class="st10" d="M399.77,1674.83c0.63,0.36,1.26,0.72,1.89,1.07C401.03,1675.55,400.4,1675.19,399.77,1674.83z"/>
<path class="st9" d="M547.37,1667.17c0.69-0.47,1.39-0.94,2.08-1.41C548.76,1666.23,548.06,1666.7,547.37,1667.17z"/>
<path class="st15" d="M486.4,1283.31c-0.31,0.63-0.62,1.26-0.93,1.88C485.78,1284.57,486.09,1283.94,486.4,1283.31z"/>
<path class="st18" d="M423.37,1682.48c0.7,0.12,1.41,0.24,2.11,0.36C424.78,1682.72,424.08,1682.6,423.37,1682.48z"/>
<path class="st15" d="M489.6,1274.63c-0.7,1.2-1.39,2.4-2.09,3.61C488.2,1277.04,488.9,1275.83,489.6,1274.63z"/>
<path class="st18" d="M514.26,1682.88c0.68-0.16,1.37-0.31,2.05-0.47C515.63,1682.57,514.94,1682.73,514.26,1682.88z"/>
<path class="st15" d="M491.78,1269.58c-0.62,0.98-1.24,1.96-1.86,2.94C490.54,1271.55,491.16,1270.56,491.78,1269.58z"/>
<path class="st17" d="M567.35,1606.51c-0.44-0.69-0.88-1.38-1.32-2.07C566.47,1605.13,566.91,1605.82,567.35,1606.51z"/>
<path class="st19" d="M1574.27,1525.41c0.42,3.18,0.84,6.37,1.26,9.55C1575.11,1531.77,1574.69,1528.59,1574.27,1525.41z"/>
<path class="st19" d="M1574.3,1431.26c0,1.8,0,3.6,0,5.39C1574.3,1434.86,1574.3,1433.06,1574.3,1431.26z"/>
<path class="st19" d="M1286.51,1165.33c0.56,0.27,0.97,0.69,1.24,1.26C1287.34,1166.16,1286.92,1165.75,1286.51,1165.33z"/>
<path class="st19" d="M1284.11,1163.56c0.59,0.42,1.18,0.84,1.77,1.27C1285.29,1164.41,1284.7,1163.99,1284.11,1163.56z"/>
<path class="st19" d="M1282.08,1161.77c0.63,0.57,1.26,1.14,1.89,1.71C1283.33,1162.91,1282.71,1162.34,1282.08,1161.77z"/>
<path class="st19" d="M1682.84,1160.05c1.1-0.72,2.2-1.45,3.3-2.17C1685.04,1158.6,1683.94,1159.33,1682.84,1160.05z"/>
<path class="st19" d="M1638.46,1198.61c0.52-0.62,1.04-1.24,1.56-1.86C1639.5,1197.37,1638.98,1197.99,1638.46,1198.61z"/>
<path class="st19" d="M1640.25,1196.44c0.46-0.52,0.92-1.04,1.38-1.56C1641.17,1195.4,1640.71,1195.92,1640.25,1196.44z"/>
<path class="st19" d="M1708.73,1146.02c0.54-0.32,1.07-0.64,1.6-0.96C1709.8,1145.38,1709.27,1145.7,1708.73,1146.02z"/>
<path class="st19" d="M1686.37,1157.72c0.73-0.48,1.46-0.97,2.2-1.45C1687.83,1156.75,1687.1,1157.23,1686.37,1157.72z"/>
<path class="st20" d="M1979.68,1739.3c0.02,0.37,0.05,0.74,0.07,1.1c-0.11-0.12-0.33-0.3-0.3-0.35c0.11-0.23,0.3-0.43,0.46-0.64
	C1979.9,1739.4,1979.68,1739.3,1979.68,1739.3z"/>
<path class="st1" d="M1015.95,1353.76c-0.27-4.38-0.7-7.9-0.68-11.42c0.25-41.22,0.92-82.45,0.63-123.66
	c-0.07-10.02,2.13-18.29,9.33-24.77c3.81-3.43,8.49-6.37,13.29-8.12c31.8-11.63,63.3-11.73,92.92,6.11
	c31.31,18.85,36.97,56.61,16.98,85.94c-1.38,2.02-3.06,3.86-4.28,5.97c-10.31,17.8-24.71,30.99-43.16,40.25
	C1074.47,1337.37,1047.06,1347.85,1015.95,1353.76z M1049.55,1315.63c2.89-0.78,5.29-1.05,7.34-2.05
	c18.56-9.03,36.03-19.33,50.25-34.96c9.95-10.93,15.1-22.79,14.69-37.34c-0.3-10.27-5.33-17.09-14.62-21.36
	c-13.7-6.29-28.18-6.93-42.38-4.22c-14.04,2.67-14.73,3.02-15.82,17.95c-0.09,1.22-0.04,2.46-0.04,3.69
	c0,23.36-0.01,46.73,0.03,70.09C1048.99,1309.83,1049.31,1312.22,1049.55,1315.63z"/>
<path class="st3" d="M1445.57,1848.72c-1.02,16.54-0.93,33.25-3.37,49.57c-2.66,17.78-7.43,35.26-11.74,52.76
	c-2.62,10.63-8.92,19.52-15.85,27.74c-21.33,25.31-60.5,23.75-80.93-2.92c-12.8-16.72-19.62-35.94-23.6-56.28
	c-5.61-28.66-9.53-57.65-7.07-86.82c2.45-28.99,6.31-58.06,18.39-84.94c5.85-13.01,12.96-25.36,24.56-35.02
	c18.71-15.58,53-14.49,71.45,11.16c12.09,16.8,17.01,35.79,21.23,55.29C1443.6,1802.13,1445.19,1825.33,1445.57,1848.72z
	 M1418.38,1849.4c0-11.98,0.68-24.02-0.19-35.94c-0.86-11.88-2.92-23.72-5.09-35.45c-2.69-14.55-7.05-28.51-16.29-40.57
	c-6.35-8.3-14.21-12.54-24.69-10.82c-8.06,1.33-14.34,5.92-18.11,12.92c-5.35,9.94-11.19,19.93-14.49,30.61
	c-15.01,48.61-14.42,97.91-4.65,147.42c3.01,15.24,8.53,29.45,17.45,42.14c12.67,18.03,34.04,17.52,46.51-0.51
	c6.23-9.01,10.03-18.9,12.52-29.4C1417.63,1903.37,1419.41,1876.48,1418.38,1849.4z"/>
</svg>
